<?xml version="1.0" encoding="utf8" standalone="no"?>
<svg id="windrose" viewBox="0 0 900 900" xmlns="http://www.w3.org/2000/svg">
<title>Windrose</title>
<path d="m50,0a50,50 0 1,0 -100,0 50,50 0 1,0 100,0" fill="none" stroke="#000" stroke-width="2" transform="matrix(.00124,-1.24197,-1.24197,-.00124,463.91941,436.19323)"/>
<path d="m100,0a100,100 0 1,0 -200,0 100,100 0 1,0 200,0" fill="none" stroke="#000" stroke-width="2" transform="matrix(.00124,-1.24197,-1.24197,-.00124,463.91941,436.19323)"/>
<path d="m150,0a150,150 0 1,0 -300,0 150,150 0 1,0 300,0" fill="none" stroke="#000" stroke-width="2" transform="matrix(.00124,-1.24197,-1.24197,-.00124,463.91941,436.19323)"/>
<path d="m200,0a200,200 0 1,0 -400,0 200,200 0 1,0 400,0" fill="none" stroke="#000" stroke-width="2" transform="matrix(.00124,-1.24197,-1.24197,-.00124,463.91941,436.19323)"/>
<path d="m250,0a250,250 0 1,0 -500,0 250,250 0 1,0 500,0" fill="none" stroke="#000" stroke-width="2" transform="matrix(.00124,-1.24197,-1.24197,-.00124,463.91941,436.19323)"/>
<path d="m463.91941,436.19323-62.09847-.062" fill="none" stroke="#000" stroke-width="2.48394"/>
<path d="m463.91941,436.19323 .0618-62.0985" fill="none" stroke="#000" stroke-width="2.48394"/>
<path d="m463.91941,436.19323 62.09846.062" fill="none" stroke="#000" stroke-width="2.48394"/>
<path d="m463.91941,436.19323-.0618,62.0985" fill="none" stroke="#000" stroke-width="2.48394"/>
<path d="m463.98126,374.09473 .24741-248.39383" fill="none" stroke="#000" stroke-width="2.48394"/>
<path d="m476.09488,375.30003 48.7019-243.57277" fill="none" stroke="#000" stroke-width="2.48394"/>
<path d="m487.74061,378.84543 95.28479-229.39135" fill="none" stroke="#000" stroke-width="2.48394"/>
<path d="m498.4709,384.59463 138.20595-206.39451" fill="none" stroke="#000" stroke-width="2.48394"/>
<path d="m507.87339,392.32673 175.81593-175.46605" fill="none" stroke="#000" stroke-width="2.48394"/>
<path d="m515.58676,401.74463 206.66939-137.79456" fill="none" stroke="#000" stroke-width="2.48394"/>
<path d="m521.31458,412.48633 229.58068-94.8276" fill="none" stroke="#000" stroke-width="2.48394"/>
<path d="m524.83674,424.13913 243.66931-48.2166" fill="none" stroke="#000" stroke-width="2.48394"/>
<path d="m526.01787,436.25513 248.39387.2474" fill="none" stroke="#000" stroke-width="2.48394"/>
<path d="m524.8126,448.36873 243.57278,48.7019" fill="none" stroke="#000" stroke-width="2.48394"/>
<path d="m521.26724,460.01443 229.39132,95.2848" fill="none" stroke="#000" stroke-width="2.48394"/>
<path d="m515.51803,470.74473 206.39449,138.2059" fill="none" stroke="#000" stroke-width="2.48394"/>
<path d="m507.78592,480.14723 175.46604,175.8159" fill="none" stroke="#000" stroke-width="2.48394"/>
<path d="m498.36804,487.86063 137.79453,206.6693" fill="none" stroke="#000" stroke-width="2.48394"/>
<path d="m487.62632,493.58843 94.82764,229.5806" fill="none" stroke="#000" stroke-width="2.48394"/>
<path d="m475.97356,497.11053 48.21658,243.6693" fill="none" stroke="#000" stroke-width="2.48394"/>
<path d="m463.85756,498.29173-.24741,248.3938" fill="none" stroke="#000" stroke-width="2.48394"/>
<path d="m451.74394,497.08643-48.7019,243.5728" fill="none" stroke="#000" stroke-width="2.48394"/>
<path d="m440.09821,493.54103-95.28479,229.3914" fill="none" stroke="#000" stroke-width="2.48394"/>
<path d="m429.36792,487.79183-138.20595,206.3945" fill="none" stroke="#000" stroke-width="2.48394"/>
<path d="m419.96543,480.05973-175.81593,175.4661" fill="none" stroke="#000" stroke-width="2.48394"/>
<path d="m412.25206,470.64183-206.66939,137.7946" fill="none" stroke="#000" stroke-width="2.48394"/>
<path d="m406.52424,459.90013-229.58068,94.8276" fill="none" stroke="#000" stroke-width="2.48394"/>
<path d="m403.00208,448.24733-243.66931,48.2166" fill="none" stroke="#000" stroke-width="2.48394"/>
<path d="m401.82094,436.13133-248.39386-.2474" fill="none" stroke="#000" stroke-width="2.48394"/>
<path d="m403.02622,424.01773-243.57278-48.7019" fill="none" stroke="#000" stroke-width="2.48394"/>
<path d="m406.57158,412.37203-229.39132-95.2848" fill="none" stroke="#000" stroke-width="2.48394"/>
<path d="m412.32079,401.64173-206.39449-138.20594" fill="none" stroke="#000" stroke-width="2.48394"/>
<path d="m420.0529,392.23923-175.46604-175.81591" fill="none" stroke="#000" stroke-width="2.48394"/>
<path d="m429.47078,384.52583-137.79453-206.66934" fill="none" stroke="#000" stroke-width="2.48394"/>
<path d="m440.2125,378.79803-94.82764-229.58065" fill="none" stroke="#000" stroke-width="2.48394"/>
<path d="m451.86526,375.27593-48.21658-243.66934" fill="none" stroke="#000" stroke-width="2.48394"/>
<path d="m2.5,0a2.5,2.5 0 1,0 -5,0 2.5,2.5 0 1,0 5,0" transform="matrix(.00124,-1.24197,-1.24197,-.00124,463.91941,436.19323)"/>
<g font-family="Sans" font-size="45" font-weight="bold" letter-spacing="0" word-spacing="0">
<path d="m455.35291,57.4367v-25.05371h4.92187l10.25391,16.73096v-16.73096h4.6997v25.05371h-5.07568l-10.1001-16.33789v16.33789z"/>
<path d="m430.48718,94.53875 4.64844-.56397c.14811,1.1849.54687,2.09066 1.19629,2.71729s1.43554.93995 2.3584.93994c.9912,4e-006 1.82575-.37597 2.50366-1.12793s1.01683-1.76594 1.01685-3.04199c-2e-005-1.20767-.32472-2.1647-.97413-2.87109s-1.44125-1.05956-2.37548-1.05957c-.61525,1.2e-005-1.35011.11964-2.20459.35889l.52978-3.91357c1.29882.03419 2.29003-.24779 2.97363-.84595s1.02538-1.39281 1.02539-2.38403c-1e-005-.84308-.25066-1.51528-.75195-2.0166s-1.16781-.75193-1.99951-.75195c-.82032,2.1e-005-1.521.28485-2.10205.85449s-.93425,1.40139-1.05957,2.49512l-4.42627-.75195c.30761-1.51528.77189-2.72581 1.39282-3.63159s1.48681-1.61781 2.59766-2.13623 2.35554-.77756 3.73413-.77759c2.35839,2.5e-005 4.24966.75198 5.67383,2.25586 1.17348,1.23049 1.76023,2.62046 1.76025,4.16992-2e-005,2.19891-1.202,3.95347-3.60596,5.26367 1.43554.30763 2.5834.99692 3.44361,2.06787s1.29026,2.3641 1.29028,3.8794c-2e-005,2.1989-.80324,4.07308-2.40967,5.62256s-3.60597,2.32421-5.99853,2.32422c-2.26726-1e-005-4.14714-.65227-5.63965-1.95679s-2.3584-3.01066-2.59766-5.11841z"/>
<path d="m466.41003,82.26824-4.64843.5127c-.11395-.95701-.41017-1.66339-.88868-2.11914s-1.09945-.68357-1.86279-.68359c-1.014,2.1e-005-1.87134.45575-2.57202,1.36719s-1.14218,2.80845-1.32446,5.69092c1.19628-1.41274 2.68309-2.11912 4.46045-2.11914 2.00519,1.6e-005 3.72272.76336 5.15258,2.29004s2.14476,3.49773 2.14478,5.91309c-2e-005,2.56348-.75197,4.61996-2.25586,6.16943s-3.43507,2.32421-5.79346,2.32422c-2.5293-1e-005-4.60856-.98267-6.23779-2.948s-2.44385-5.18676-2.44385-9.66431c0-4.59145.8488-7.90118 2.54639-9.9292s3.90217-3.04197 6.61377-3.04199c1.90266,2.5e-005 3.47777.53266 4.72534,1.5979s2.04222,2.61192 2.38403,4.63989zm-10.88623,10.47607c0,1.56088.35888,2.76571 1.07666,3.6145s1.53808,1.2732 2.46094,1.27319c.88866,4e-006 1.62922-.34749 2.22168-1.04248s.88866-1.8343.88867-3.41797c-1e-005-1.62922-.31902-2.82266-.95703-3.58032s-1.43556-1.13646-2.39258-1.13647c-.92286,1.3e-005-1.70329.36175-2.34131,1.08521s-.95703,1.7916-.95703,3.20435z"/>
<path d="m477.7406,76.03045c2.42675,2.5e-005 4.32372.86591 5.69092,2.59766 1.62921,2.0508 2.44383,5.45168 2.44385,10.20264-2e-005,4.73959-.82033,8.14616-2.46094,10.21973-1.35581,1.70898-3.24708,2.56347-5.67383,2.56348-2.43816-1e-005-4.40349-.9371-5.896-2.81128s-2.23877-5.21524-2.23877-10.02319c0-4.71678.82032-8.11196 2.46094-10.18555 1.35579-1.70896 3.24707-2.56345 5.67383-2.56348zm0,3.98193c-.58106,2.1e-005-1.09945.18516-1.55518.55542s-.80892,1.03396-1.05957,1.99097c-.33041,1.24188-.49561,3.33254-.4956,6.27197s.1481,4.95891.44433,6.05835 .66935,1.83147 1.11939,2.19604 .96557.54688 1.54663.54688 1.09944-.18514 1.55518-.55542 .8089-1.03393 1.05957-1.99097c.33039-1.23046.49559-3.31542.4956-6.25488s-.14812-4.95889-.44433-6.05835-.66937-1.83429-1.11939-2.20459-.96558-.5554-1.54663-.55542z"/>
<path d="m489.08826,81.1574c0-1.51528.53263-2.80271 1.5979-3.86231s2.34985-1.58933 3.85376-1.58936 2.78848.53266 3.85376,1.5979 1.59788,2.34987 1.5979,3.85376-.53265,2.78851-1.5979,3.85376-2.34987,1.59792-3.85376,1.5979-2.7885-.53262-3.85376-1.5979-1.5979-2.34984-1.5979-3.85376zm2.83691,0c0,.71779.25634,1.33303.76904,1.8457s1.12793.76906 1.84571.76904 1.333-.25633 1.8457-.76904 .76903-1.12791.76904-1.8457-.25635-1.33299-.76904-1.8457-1.12794-.76902-1.8457-.76904-1.33302.25637-1.84571.76904-.76904,1.12795-.76904,1.8457z"/>
</g>
<g font-family="Sans" font-size="40" letter-spacing="0" word-spacing="0">
<path d="m440.23132,797.43677h-4.80224v-18.09815c-1.75457,1.64064-3.82244,2.85402-6.20362,3.64014v-4.35791c1.25326-.41014 2.61474-1.18772 4.08448-2.33276s2.47801-2.48086 3.0249-4.00757h3.89648z"/>
<path d="m451.5448,783.9187c-1.24187-.52407-2.14478-1.24469-2.70874-2.16186s-.84595-1.92259-.84595-3.01636c0-1.86847.65226-3.41225 1.95679-4.63135s3.15877-1.82859 5.56274-1.82861c2.38118,2e-005 4.22973.60956 5.54566,1.82861s1.97386,2.76288 1.97387,4.63135c-1e-005,1.16213-.30193,2.19606-.90576,3.10181s-1.45265,1.59791-2.54638,2.07641c1.38996.55828 2.44668,1.3729 3.17016,2.44385s1.08519,2.30714 1.08521,3.70849c-2e-005,2.31284-.73773,4.19272-2.21314,5.63965s-3.43792,2.17041-5.88745,2.17041c-2.27865,0-4.17562-.59814-5.69092-1.79443-1.78874-1.41276-2.6831-3.3496-2.6831-5.81055 0-1.35578.3361-2.60049 1.0083-3.73413s1.73177-2.00804 3.17871-2.62329zm.99121-4.83642c-1e-005,.95704.27058,1.7033.81177,2.23876s1.26179.80324 2.16186.80323c.91145,1e-005 1.64062-.27058 2.1875-.81177s.8203-1.29027.82032-2.24731c-2e-005-.90005-.27061-1.62067-.81177-2.16187s-1.25612-.81175-2.14478-.81177c-.92286,2e-005-1.65772.27346-2.20459.82032s-.82032,1.27036-.82031,2.17041zm-.44434,10.73242c0,1.32162.33895,2.3527 1.01685,3.09326s1.52384,1.11084 2.53784,1.11084c.9912,0 1.81151-.35604 2.46094-1.06812s.97411-1.74031.97412-3.08471c-1e-005-1.1735-.33042-2.11629-.99121-2.82837s-1.49822-1.06811-2.51221-1.06812c-1.17351,1e-005-2.04794.40447-2.62329,1.21338s-.86304,1.68621-.86304,2.63184z"/>
<path d="m475.02625,772.28052c2.42674,2e-005 4.32371.86591 5.69091,2.59765 1.62922,2.05081 2.44383,5.45168 2.44385,10.20264-2e-005,4.73959-.82033,8.14616-2.46094,10.21973-1.3558,1.70898-3.24708,2.56347-5.67382,2.56347-2.43816,0-4.40349-.93709-5.896-2.81128s-2.23877-5.21524-2.23877-10.02319c0-4.71678.82031-8.11196 2.46094-10.18555 1.35579-1.70896 3.24706-2.56345 5.67383-2.56347zm0,3.98193c-.58107,2e-005-1.09946.18516-1.55518.55542s-.80893,1.03396-1.05957,1.99097c-.33041,1.24188-.49561,3.33253-.49561,6.27197s.14811,4.95891.44434,6.05835 .66934,1.83147 1.11938,2.19605 .96557.54687 1.54664.54687 1.09943-.18514 1.55517-.55542 .80891-1.03393 1.05957-1.99097c.33039-1.23046.49559-3.31542.49561-6.25488s-.14813-4.95889-.44434-6.05835-.66936-1.83429-1.11938-2.20459-.96559-.5554-1.54663-.55542z"/>
<path d="m486.3739,777.40747c0-1.51528.53263-2.80271 1.5979-3.8623s2.34985-1.58933 3.85376-1.58936 2.78848.53266 3.85376,1.5979 1.59789,2.34988 1.5979,3.85376-.53264,2.78851-1.5979,3.85376-2.34986,1.59792-3.85376,1.5979-2.7885-.53262-3.85376-1.5979-1.5979-2.34983-1.5979-3.85376zm2.83692,0c-1e-005,.71779.25634,1.33303.76904,1.8457s1.12792.76906 1.8457.76905 1.333-.25633 1.8457-.76905 .76904-1.12791.76905-1.8457-.25636-1.33299-.76905-1.8457-1.12793-.76902-1.8457-.76905-1.33301.25637-1.8457.76905-.76905,1.12795-.76904,1.8457z"/>
<path d="m452.26257,833.03491 4.92188-.47851c.29622,1.65202.89721,2.8654 1.80298,3.64013s2.12767,1.16212 3.66577,1.16211c1.62922,1e-005 2.85684-.34464 3.68286-1.03393s1.239-1.49536 1.23901-2.41822c-1e-005-.59244-.17376-1.09659-.52124-1.51245s-.9542-.77758-1.82007-1.0852c-.59246-.20507-1.94255-.56965-4.05029-1.09375-2.71159-.67219-4.61426-1.4982-5.70801-2.47803-1.53809-1.37857-2.30713-3.05906-2.30713-5.0415 0-1.27603.36174-2.46946 1.08521-3.58033s1.76595-1.95676 3.12744-2.53784 3.00496-.87155 4.93042-.87158c3.14452,3e-005 5.51146.68932 7.10083,2.06787s2.42389,3.21861 2.50366,5.52002l-5.05859.22217c-.21649-1.28742-.68076-2.21312-1.39282-2.7771s-1.78021-.84593-3.20435-.84595c-1.46973,2e-005-2.62045.30194-3.45215.90576-.53549.38739-.80323.90579-.80322,1.55518-1e-005,.59247.25064,1.09946.75195,1.521 .63802.53549 2.18749,1.09376 4.64844,1.6748s4.28099,1.18206 5.46021,1.80298 2.10203,1.46974 2.76855,2.54639 .99974,2.40682.99976,3.99047c-2e-005,1.43556-.39879,2.77996-1.19629,4.03321s-1.92548,2.18465-3.38379,2.79419-3.27557.9143-5.45166.9143c-3.16733,0-5.59978-.73201-7.29736-2.19604s-2.71159-3.59741-3.042-6.40015z"/>
</g>
<g font-family="Sans" font-size="35" font-weight="bold" letter-spacing="0" text-anchor="middle" transform="matrix(.99986,-.01649,.01649,.99986,0,0)" word-spacing="0">
<path d="m18.22675,450.74597-5.98144-25.05371h5.17822l3.77685,17.20947 4.58008-17.20947h6.01563l4.39209,17.5 3.84522-17.5h5.09277l-6.08398,25.05371h-5.36621l-4.99023-18.73047-4.97314,18.73047z"/>
<path d="m72.55537,446.28552v4.46045h-16.8335c.18229-1.68619.72916-3.28409 1.64063-4.7937s2.71158-3.51195 5.40039-6.00708c2.1647-2.01659 3.49201-3.38377 3.98193-4.10156 .66079-.9912.9912-1.97101.99121-2.93946-1.3e-005-1.07094-.28769-1.8941-.86304-2.46948s-1.37005-.86301-2.38403-.86303c-1.00261,2e-005-1.80014.30194-2.39258.90576s-.93425,1.60646-1.02539,3.00781l-4.78516-.47852c.28483-2.6432 1.1792-4.54018 2.68311-5.69091s3.38378-1.72605 5.63965-1.72608c2.47232,3e-005 4.41486.66653 5.82764,1.99951s2.11912,2.99075 2.11914,4.97315c-1.8e-005,1.12794-.20225,2.20176-.60669,3.22143s-1.04535,2.08783-1.92261,3.20435c-.58107.74057-1.62925,1.80584-3.14453,3.1958s-2.47519,2.31283-2.87964,2.76855-.73202.90007-.98267,1.33301z"/>
<path d="m75.81953,430.49451v-4.46045h16.42334v3.48633c-1.35581,1.33302-2.73439,3.24708-4.13574,5.74218s-2.46949,5.1469-3.20435,7.95533-1.09661,5.31779-1.08521,7.52807h-4.63135c.07975-3.46354.79467-6.99543 2.14478-10.5957s3.15307-6.81883 5.40894-9.65576z"/>
<path d="m103.41962,425.58972c2.42675,3e-005 4.32372.86591 5.69092,2.59766 1.62922,2.0508 2.44383,5.45168 2.44385,10.20263-2e-005,4.7396-.82033,8.14617-2.46094,10.21973-1.35581,1.70899-3.24708,2.56348-5.67383,2.56348-2.43815,0-4.40348-.93709-5.89599-2.81128s-2.23877-5.21524-2.23877-10.02319c-2e-006-4.71678.82031-8.11196 2.46094-10.18555 1.35579-1.70896 3.24706-2.56345 5.67382-2.56348zm0,3.98194c-.58106,2e-005-1.09945.18516-1.55517.55542s-.80893,1.03395-1.05957,1.99096c-.33041,1.24188-.49561,3.33254-.49561,6.27197s.14811,4.95892.44434,6.05835 .66934,1.83147 1.11938,2.19605 .96557.54688 1.54663.54687 1.09944-.18513 1.55518-.55542 .80891-1.03393 1.05957-1.99096c.33039-1.23046.49559-3.31542.49561-6.25489s-.14813-4.95888-.44434-6.05834-.66936-1.83429-1.11938-2.20459-.96559-.5554-1.54664-.55542z"/>
<path d="m114.76728,430.71667c0-1.51527.53263-2.80271 1.5979-3.8623s2.34985-1.58933 3.85376-1.58936 2.78848.53266 3.85376,1.59791 1.59789,2.34987 1.5979,3.85375-.53264,2.78851-1.5979,3.85376-2.34986,1.59792-3.85376,1.5979-2.7885-.53261-3.85376-1.5979-1.5979-2.34983-1.5979-3.85376zm2.83691,0c0,.7178.25635,1.33303.76905,1.84571s1.12792.76906 1.8457.76904 1.333-.25633 1.8457-.76904 .76904-1.12791.76905-1.84571-.25636-1.33298-.76905-1.8457-1.12793-.76902-1.8457-.76904-1.33301.25637-1.8457.76904-.76905,1.12795-.76905,1.8457z"/>
</g>
<g font-family="Sans" font-size="35" font-weight="bold" letter-spacing="0" text-anchor="middle" transform="matrix(.99988,-.0154,.0154,.99988,0,0)" word-spacing="0">
<path d="m786.66174,454.04691 4.64844-.5127c.11393.94564.41015,1.64633.88867,2.10205s1.11083.6836 1.89698.68359c.9912,1e-005 1.83429-.45572 2.52929-1.36718 .69498-.91146 1.13931-2.80273 1.33301-5.67383-1.20769,1.40138-2.7173,2.10206-4.52881,2.10205-1.97103,1e-005-3.67147-.76049-5.10132-2.28149s-2.14477-3.50056-2.14477-5.93872c0-2.54068.7548-4.58861 2.2644-6.1438s3.43221-2.33274 5.76782-2.33277c2.54068,3e-005 4.62564.98269 6.25489,2.948s2.44383,5.19818 2.44384,9.69849c-1e-005,4.58008-.84881,7.88412-2.54638,9.91211s-3.90789,3.04199-6.63086,3.04199c-1.95964,0-3.5433-.52124-4.75098-1.56372s-1.98242-2.6005-2.32422-4.67407zm10.86914-10.49317c-1e-005-1.54946-.35605-2.75144-1.06811-3.60596s-1.53525-1.28171-2.46948-1.28173c-.88868,2e-005-1.62639.35036-2.21314,1.05102s-.88013,1.84857-.88013,3.44361c0,1.61785.31901,2.80559.95704,3.56323s1.43553,1.13648 2.39257,1.13647c.92285,1e-005 1.70043-.36457 2.33277-1.09375s.94847-1.80011.94848-3.21289z"/>
<path d="m814.1593,434.68411c2.42675,3e-005 4.32372.86591 5.69092,2.59766 1.62921,2.0508 2.44383,5.45168 2.44385,10.20264-2e-005,4.73959-.82033,8.14616-2.46094,10.21972-1.35581,1.70899-3.24708,2.56348-5.67383,2.56348-2.43816,0-4.40349-.93709-5.89599-2.81128s-2.23878-5.21524-2.23877-10.02319c-1e-005-4.71678.82031-8.11196 2.46093-10.18555 1.35579-1.70896 3.24707-2.56345 5.67383-2.56348zm0,3.98194c-.58106,2e-005-1.09945.18516-1.55517.55542s-.80893,1.03395-1.05957,1.99096c-.33041,1.24188-.49562,3.33254-.49561,6.27198s.14811,4.95891.44434,6.05835 .66934,1.83146 1.11938,2.19604 .96557.54688 1.54663.54688 1.09944-.18514 1.55518-.55542 .8089-1.03394 1.05957-1.99097c.33039-1.23046.49559-3.31542.4956-6.25488s-.14812-4.95889-.44433-6.05835-.66937-1.83429-1.11939-2.20459-.96558-.5554-1.54663-.55542z"/>
<path d="m825.50696,439.81107c0-1.51528.53263-2.80272 1.5979-3.86231s2.34985-1.58933 3.85376-1.58935 2.78848.53265 3.85376,1.5979 1.59789,2.34987 1.5979,3.85376-.53265,2.78851-1.5979,3.85376-2.34986,1.59791-3.85376,1.5979-2.7885-.53262-3.85376-1.5979-1.5979-2.34984-1.5979-3.85376zm2.83691,0c0,.71779.25635,1.33302.76905,1.8457s1.12792.76906 1.8457.76904 1.333-.25633 1.8457-.76904 .76903-1.12791.76904-1.8457-.25635-1.33299-.76904-1.84571-1.12794-.76902-1.8457-.76904-1.33302.25637-1.8457.76904-.76905,1.12795-.76905,1.84571z"/>
<path d="m850.30432,459.84036v-25.05371h18.57666v4.23828h-13.51806v5.5542h12.57812v4.22119h-12.57812v6.81885h13.99658v4.22119z"/>
</g>
<g transform="matrix(1.03246,0,0,1.03246,50.81998,23.60566)">
<path d="m400,400v-65l155-90-155,155z" stroke="#000"/>
<path d="m400,400h65l90-155-155,155z" fill="#fff" fill-rule="evenodd" stroke="#000"/>
<path d="m400,400h65l90,155-155-155z" stroke="#000"/>
<path d="m400,400v65l155,90-155-155z" fill="#fff" stroke="#000"/>
<path d="m400,400v65l-155,90 155-155z" stroke="#000"/>
<path d="m400,400h-65l-90,155 155-155z" fill="#fff" stroke="#000"/>
<path d="m400,400h-65l-90-155 155,155z" stroke="#000"/>
<path d="m400,400v-65l-155-90 155,155z" fill="#fff" stroke="#000"/>
<path d="m400,100-45,255 45,45v-300z" stroke="#000"/>
<path d="m400,100 45,255-45,45v-300z" fill="#fff" stroke="#000"/>
<path d="m700,400-255-45-45,45h300z" stroke="#000"/>
<path d="m700,400-255,45-45-45h300z" fill="#fff" stroke="#000"/>
<path d="m400,700 45-255-45-45v300z" stroke="#000"/>
<path d="m400,700-45-255 45-45v300z" fill="#fff" stroke="#000"/>
<path d="m100,400 255,45 45-45h-300z" stroke="#000"/>
<path d="m100,400 255-45 45,45h-300z" fill="#fff" stroke="#000"/>
</g>
<g font-family="Sans" font-size="30" font-weight="bold" letter-spacing="0" text-anchor="middle" transform="rotate(46.65944)" word-spacing="0">
<path d="m608.60004-412.26868v-21.47461h4.21875l8.78906,14.34082v-14.34082h4.02832v21.47461h-4.35059l-8.65722-14.0039v14.0039z"/>
<path d="m630.23578-412.26868v-21.47461h15.92285v3.63282h-11.58691v4.76074h10.78125v3.61816h-10.78125v5.84473h11.99707v3.61816z"/>
<path d="m613.87347-374.76868v-4.32129h-8.78906v-3.60351l9.31641-13.6377h3.45703v13.62305h2.66601v3.61816h-2.66601v4.32129zm0-7.93945v-7.33887l-4.93652,7.33887z"/>
<path d="m622.56-380.29114 4.10156-.4248c.11718.92774.46386,1.6626 1.04004,2.20459s1.24023.81299 1.99219.81299c.85936,0 1.5869-.34912 2.18261-1.04737s.89355-1.75048.89356-3.15674c-1e-005-1.31835-.29542-2.30712-.88623-2.9663s-1.35987-.98876-2.30713-.98877c-1.18165,1e-005-2.24122.52247-3.17871,1.56738l-3.33985-.4834 2.10938-11.17676h10.88379v3.85254h-7.76367l-.64453,3.64746c.91796-.45897 1.85546-.68846 2.8125-.68847 1.82616,1e-005 3.37401.66407 4.64355,1.99218s1.90428,3.05177 1.9043,5.1709c-2e-005,1.76759-.51271,3.34473-1.53809,4.73145-1.3965,1.89453-3.33497,2.84179-5.81543,2.84179-1.98243,0-3.59864-.53222-4.84863-1.59668s-1.99707-2.49511-2.24121-4.29199z"/>
<path d="m639.18597-391.93665c0-1.29881.45655-2.40232 1.36963-3.31054s2.01416-1.36229 3.30323-1.36231 2.39012.45657 3.30322,1.36963 1.36962,2.01418 1.36963,3.30322-.45656,2.39016-1.36963,3.30323-2.01417,1.36964-3.30322,1.36963-2.39014-.45653-3.30323-1.36963-1.36963-2.01415-1.36963-3.30323zm2.43164,0c0,.61526.21973,1.1426.65918,1.58204s.9668.65919 1.58204.65918 1.14257-.21972 1.58203-.65918 .65917-.96678.65918-1.58204-.21974-1.14256-.65918-1.58203-.96681-.65916-1.58203-.65918-1.14259.21975-1.58204.65918-.65918.96682-.65918,1.58203z"/>
</g>
<g font-family="Sans" font-size="30" font-weight="bold" letter-spacing="0" text-anchor="middle" transform="matrix(.72182,-.69208,.69208,.72182,0,0)" word-spacing="0">
<path d="m10.45036,260.32013v-21.47461h4.21875l8.78906,14.34082v-14.34082h4.02832v21.47461h-4.35059l-8.65723-14.00391v14.00391z"/>
<path d="m35.13298,260.32013-5.12695-21.47461h4.43848l3.2373,14.75098 3.92578-14.75098h5.15625l3.76465,15 3.2959-15h4.36523l-5.21484,21.47461h-4.59961l-4.27734-16.05469-4.26269,16.05469z"/>
<path d="m3.28728,292.12189 3.98438-.4834c.12695,1.01563.46874,1.792 1.02539,2.3291s1.23046.80567 2.02148.80566c.8496,1e-005 1.56493-.32226 2.146-.96679s.87157-1.51367.87158-2.60742c-1.1e-005-1.03515-.27833-1.85546-.83496-2.46094s-1.23536-.90819-2.03613-.9082c-.52735,1e-005-1.15723.10254-1.88965.30761l.4541-3.35449c1.11327.0293 1.96288-.21239 2.54883-.7251s.8789-1.19383.87891-2.04345c-1e-005-.72264-.21485-1.29882-.64453-1.72852s-1.00099-.64451-1.71387-.64453c-.70313,2e-005-1.30372.24416-1.80176.73242s-.80079,1.20119-.9082,2.13867l-3.79395-.64453c.26367-1.29881.66162-2.33641 1.19385-3.11279s1.27441-1.3867 2.22656-1.83106 2.01904-.66648 3.20068-.6665c2.02147,2e-005 3.64257.64455 4.86328,1.93359 1.00585,1.05471 1.50878,2.24611 1.50879,3.57422-1.4e-005,1.88478-1.03029,3.38869-3.09082,4.51172 1.23046.26368 2.21434.8545 2.95166,1.77246s1.10594,2.02638 1.10596,3.3252c-1.5e-005,1.88477-.68849,3.49121-2.06543,4.81933s-3.09083,1.99219-5.1416,1.99219c-1.94337,0-3.55469-.55908-4.83398-1.67725s-2.02149-2.58056-2.22656-4.3872z"/>
<path d="m30.66521,297.82013h-4.11621v-15.5127c-1.50391,1.40627-3.27637,2.44631-5.31738,3.12012v-3.73535c1.07421-.35155 2.24121-1.01805 3.50098-1.99951s2.12402-2.12645 2.59277-3.43506h3.33984z"/>
<path d="m36.89079,292.29767 4.10156-.42481c.11718.92774.46386,1.66261 1.04004,2.20459s1.24023.81299 1.99219.81299c.85937,0 1.5869-.34912 2.18262-1.04736s.89354-1.75048.89355-3.15674c-1.2e-005-1.31835-.29542-2.30712-.88623-2.96631s-1.35987-.98876-2.30713-.98877c-1.18165,1e-005-2.24122.52247-3.17871,1.56739l-3.33984-.4834 2.10938-11.17676h10.88379v3.85254h-7.76367l-.64453,3.64746c.91796-.45897 1.85546-.68846 2.8125-.68848 1.82616,2e-005 3.37401.66408 4.64355,1.99219s1.90428,3.05177 1.9043,5.1709c-1.6e-005,1.76758-.51271,3.34473-1.53809,4.73144-1.3965,1.89454-3.33497,2.8418-5.81543,2.8418-1.98243,0-3.59864-.53223-4.84863-1.59668s-1.99707-2.49511-2.24121-4.29199z"/>
<path d="m53.51677,280.65216c-1e-006-1.29881.45654-2.40232 1.36963-3.31055s2.01416-1.36228 3.30322-1.3623 2.39013.45656 3.30322,1.36963 1.36962,2.01418 1.36963,3.30322-.45655,2.39015-1.36963,3.30322-2.01417,1.36964-3.30322,1.36963-2.39014-.45653-3.30322-1.36963-1.36963-2.01414-1.36963-3.30322zm2.43164,0c-4e-006,.61525.21972,1.14259.65918,1.58203s.96679.6592 1.58203.65918 1.14257-.21971 1.58203-.65918 .65917-.96678.65918-1.58203-.21974-1.14256-.65918-1.58203-.9668-.65916-1.58203-.65918-1.14258.21975-1.58203.65918-.65918.96681-.65918,1.58203z"/>
</g>
<g font-family="Sans" font-size="30" font-weight="bold" letter-spacing="0" text-anchor="middle" transform="matrix(-.66774,-.7444,.7444,-.66774,0,0)" word-spacing="0">
<path d="m-672.26819-325.29373 4.21875-.41016c.2539,1.41602.76904,2.45606 1.54541,3.12012s1.82372.9961 3.14209.99609c1.39647,1e-005 2.44872-.2954 3.15674-.88623s1.062-1.28173 1.06201-2.07275c-1e-005-.50781-.14894-.93994-.44678-1.29639s-.81788-.66649-1.56005-.93017c-.50783-.17578-1.66505-.48828-3.47168-.9375-2.32423-.57617-3.95509-1.28417-4.89258-2.12403-1.31836-1.18163-1.97754-2.62205-1.97754-4.32129 0-1.09373.31006-2.11668.93017-3.06884s1.51367-1.67723 2.68067-2.1753 2.57567-.74705 4.22607-.74707c2.6953,2e-005 4.72411.59084 6.08643,1.77246s2.07762,2.75881 2.14599,4.73145l-4.33593.19043c-.18556-1.1035-.58351-1.89696-1.19385-2.38037s-1.52589-.72508-2.74658-.7251c-1.25978,2e-005-2.2461.25881-2.95899.77637-.45899.33205-.68848.77638-.68847,1.333-1e-005,.50783.21483.9424.64453,1.30372 .54687.45899 1.87499.93751 3.98437,1.43554s3.66942,1.0132 4.68018,1.54541 1.80174,1.25978 2.37305,2.18262 .85691,2.063.85693,3.42041c-2e-005,1.23047-.34182,2.38282-1.02539,3.45703s-1.65041,1.87256-2.90039,2.39502-2.80763.78369-4.67285.78369c-2.71485,0-4.79981-.62744-6.25489-1.88232s-2.32422-3.08349-2.60742-5.48584z"/>
<path d="m-648.08362-318.30643-5.12695-21.47461h4.43848l3.2373,14.75098 3.92578-14.75098h5.15625l3.76465,15 3.2959-15h4.36523l-5.21484,21.47461h-4.59961l-4.27734-16.05468-4.2627,16.05468z"/>
<path d="m-665.06116-284.62967v3.82324h-14.42871c.15625-1.44531.625-2.81494 1.40625-4.10888s2.32422-3.01025 4.62891-5.14893c1.85546-1.7285 2.99315-2.90038 3.41308-3.51562 .5664-.8496.8496-1.68944.84961-2.51954-1e-005-.91795-.24659-1.62351-.73974-2.11669s-1.17433-.73973-2.04346-.73975c-.85938,2e-005-1.54298.25881-2.05078.77637s-.80079,1.37697-.87891,2.57812l-4.10156-.41016c.24414-2.2656 1.01074-3.89158 2.2998-4.87792s2.90039-1.47948 4.83399-1.4795c2.11913,2e-005 3.78417.57131 4.99512,1.71387s1.81639,2.56349 1.8164,4.2627c-1e-005,.96681-.17335,1.88722-.52002,2.76123s-.89601,1.78956-1.64795,2.74658c-.49806.63477-1.39649,1.54786-2.69531,2.73926s-2.12159,1.98242-2.46826,2.37304-.62745.77149-.84229,1.14258z"/>
<path d="m-648.36194-284.62967v3.82324h-14.42871c.15625-1.44531.625-2.81494 1.40625-4.10888s2.32421-3.01025 4.62891-5.14893c1.85546-1.7285 2.99315-2.90038 3.41308-3.51562 .5664-.8496.8496-1.68944.84961-2.51954-1e-005-.91795-.24659-1.62351-.73974-2.11669s-1.17433-.73973-2.04346-.73975c-.85938,2e-005-1.54298.25881-2.05078.77637s-.80079,1.37697-.87891,2.57812l-4.10156-.41016c.24414-2.2656 1.01074-3.89158 2.2998-4.87792s2.90039-1.47948 4.83399-1.4795c2.11913,2e-005 3.78417.57131 4.99512,1.71387s1.81639,2.56349 1.8164,4.2627c-1e-005,.96681-.17335,1.88722-.52002,2.76123s-.89601,1.78956-1.64795,2.74658c-.49806.63477-1.39649,1.54786-2.69531,2.73926s-2.12159,1.98242-2.46826,2.37304-.62745.77149-.84229,1.14258z"/>
<path d="m-645.50549-286.32889 4.10156-.4248c.11718.92774.46386,1.6626 1.04004,2.20459s1.24023.81299 1.99219.81299c.85936,0 1.5869-.34912 2.18261-1.04737s.89355-1.75048.89356-3.15674c-1e-005-1.31835-.29542-2.30712-.88623-2.9663s-1.35988-.98876-2.30713-.98877c-1.18165,1e-005-2.24122.52247-3.17871,1.56738l-3.33985-.4834 2.10938-11.17676h10.88379v3.85254h-7.76367l-.64454,3.64746c.91797-.45897 1.85547-.68846 2.8125-.68847 1.82617,1e-005 3.37402.66407 4.64356,1.99218s1.90428,3.05177 1.9043,5.1709c-2e-005,1.76759-.51271,3.34473-1.53809,4.73145-1.3965,1.89453-3.33497,2.84179-5.81543,2.84179-1.98243,0-3.59864-.53222-4.84863-1.59668s-1.99707-2.49511-2.24121-4.29199z"/>
<path d="m-628.87952-297.9744c0-1.29881.45654-2.40232 1.36963-3.31054s2.01416-1.36229 3.30322-1.36231 2.39013.45657 3.30323,1.36963 1.36962,2.01418 1.36963,3.30322-.45656,2.39016-1.36963,3.30323-2.01417,1.36964-3.30323,1.36963-2.39014-.45653-3.30322-1.36963-1.36963-2.01415-1.36963-3.30323zm2.43164,0c0,.61526.21973,1.1426.65918,1.58204s.9668.65919 1.58203.65918 1.14258-.21972 1.58204-.65918 .65917-.96678.65918-1.58204-.21974-1.14256-.65918-1.58203-.96681-.65916-1.58204-.65918-1.14258.21975-1.58203.65918-.65918.96682-.65918,1.58203z"/>
</g>
<g font-family="Sans" font-size="30" font-weight="bold" letter-spacing="0" text-anchor="middle" transform="matrix(-.68052,.73273,-.73273,-.68052,0,0)" word-spacing="0">
<path d="m-.2464-1022.4899 4.21875-.4102c.2539,1.416.76904,2.4561 1.54541,3.1201s1.82372.9961 3.14209.9961c1.39647,0 2.44872-.2954 3.15674-.8862s1.062-1.2817 1.06201-2.0728c-1.4e-005-.5078-.14894-.9399-.44678-1.2963s-.81788-.6665-1.56006-.9302c-.50782-.1758-1.66505-.4883-3.47168-.9375-2.32423-.5762-3.95508-1.2842-4.89258-2.124-1.31836-1.1817-1.97754-2.6221-1.97754-4.3213-1.86e-006-1.0938.31006-2.1167.93018-3.0689s1.51367-1.6772 2.68066-2.1753 2.57568-.747 4.22607-.747c2.6953,0 4.72411.5908 6.08643,1.7724s2.07762,2.7588 2.146,4.7315l-4.33594.1904c-.18556-1.1035-.58351-1.897-1.19385-2.3804s-1.52589-.7251-2.74658-.7251c-1.25977,0-2.2461.2588-2.95898.7764-.45899.332-.68848.7764-.68848,1.333-6.1e-006,.5078.21484.9424.64453,1.3037 .54687.459 1.87499.9375 3.98438,1.4356s3.66942,1.0132 4.68018,1.5454 1.80174,1.2597 2.37305,2.1826 .85691,2.063.85693,3.4204c-1.9e-005,1.2305-.34181,2.3828-1.02539,3.457s-1.65041,1.8726-2.90039,2.395-2.80763.7837-4.67285.7837c-2.71485,0-4.79981-.6274-6.25488-1.8823s-2.32422-3.0835-2.60742-5.4858z"/>
<path d="m20.89129-1015.5026v-21.4746h15.92285v3.6328h-11.58691v4.7607h10.78125v3.6182h-10.78125v5.8447h11.99707v3.6182z"/>
<path d="m-.53937-978.00262h-4.11621v-15.5127c-1.50391,1.40626-3.27637,2.4463-5.31738,3.12012v-3.73535c1.07422-.35155 2.24121-1.01805 3.50098-1.99952s2.12402-2.12644 2.59277-3.43505h3.33984z"/>
<path d="m5.48113-983.70087 3.98438-.4834c.12695,1.01564.46874,1.792 1.02539,2.32911s1.23046.80566 2.02148.80566c.8496,0 1.56493-.32226 2.146-.9668s.87157-1.51366.87158-2.60742c-1.2e-005-1.03515-.27833-1.85546-.83496-2.46094s-1.23536-.90819-2.03613-.9082c-.52735,1e-005-1.15723.10255-1.88965.30762l.4541-3.35449c1.11327.0293 1.96288-.21239 2.54883-.7251s.8789-1.19383.87891-2.04346c-1e-005-.72264-.21485-1.29881-.64453-1.72851s-1.00099-.64452-1.71387-.64454c-.70313,2e-005-1.30372.24416-1.80176.73243s-.80079,1.20118-.9082,2.13867l-3.79395-.64453c.26367-1.29881.66162-2.33641 1.19385-3.1128s1.27441-1.38669 2.22656-1.83105 2.01904-.66648 3.20068-.6665c2.02148,2e-005 3.64257.64455 4.86328,1.93359 1.00585,1.05471 1.50877,2.24611 1.50879,3.57422-1.5e-005,1.88478-1.03029,3.38868-3.09082,4.51172 1.23046.26368 2.21434.8545 2.95166,1.77246s1.10594,2.02637 1.10596,3.32519c-1.6e-005,1.88477-.68849,3.49122-2.06543,4.81934s-3.09083,1.99219-5.1416,1.99219c-1.94337,0-3.55469-.55909-4.83398-1.67725s-2.02149-2.58056-2.22656-4.38721z"/>
<path d="m22.38543-983.52509 4.10156-.4248c.11718.92774.46386,1.6626 1.04004,2.20459s1.24023.81299 1.99219.81299c.85937,0 1.5869-.34912 2.18262-1.04737s.89354-1.75048.89355-3.15673c-1.1e-005-1.31835-.29542-2.30712-.88623-2.96631s-1.35987-.98876-2.30713-.98877c-1.18165,1e-005-2.24122.52247-3.17871,1.56738l-3.33984-.4834 2.10938-11.17676h10.88379v3.85254h-7.76367l-.64453,3.64746c.91796-.45897 1.85546-.68846 2.8125-.68847 1.82616,1e-005 3.37401.66407 4.64356,1.99219s1.90428,3.05176 1.9043,5.17089c-1.6e-005,1.76759-.51271,3.34473-1.53809,4.73145-1.3965,1.89453-3.33497,2.8418-5.81543,2.8418-1.98243,0-3.59864-.53223-4.84863-1.59668s-1.99707-2.49512-2.24121-4.292z"/>
<path d="m39.01141-995.17059c-1e-006-1.29881.45654-2.40233 1.36963-3.31055s2.01416-1.36228 3.30322-1.3623 2.39013.45656 3.30322,1.36962 1.36962,2.01418 1.36963,3.30323-.45655,2.39015-1.36963,3.30322-2.01417,1.36964-3.30322,1.36963-2.39014-.45653-3.30322-1.36963-1.36963-2.01414-1.36963-3.30322zm2.43164,0c-3e-006,.61525.21972,1.14259.65918,1.58203s.96679.65919 1.58203.65918 1.14257-.21971 1.58203-.65918 .65917-.96678.65918-1.58203-.21973-1.14256-.65918-1.58203-.9668-.65916-1.58203-.65918-1.14258.21974-1.58203.65918-.65918.96681-.65918,1.58203z"/>
</g>
<g font-family="Sans" font-size="40" letter-spacing="0" transform="rotate(22.4425)" word-spacing="0">
<path d="m582.52985-139.7894v-17.17969h3.375l7.03125,11.47266v-11.47266h3.22265v17.17969h-3.48047l-6.92578-11.20312v11.20312z"/>
<path d="m599.8736-139.7894v-17.17969h3.375l7.03125,11.47266v-11.47266h3.22265v17.17969h-3.48047l-6.92578-11.20312v11.20312z"/>
<path d="m617.18219-139.7894v-17.17969h12.73828v2.90625h-9.26953v3.8086h8.625v2.89453h-8.625v4.67578h9.59766v2.89453z"/>
<path d="m590.07672-112.84799v3.05859h-11.54297c.125-1.15625.5-2.25195 1.125-3.28711s1.85937-2.40819 3.70313-4.11914c1.48437-1.3828 2.39452-2.3203 2.73047-2.8125 .45311-.67967.67967-1.35155.67968-2.01562-1e-005-.73437-.19727-1.29882-.59179-1.69336s-.93946-.59178-1.63477-.5918c-.6875,2e-005-1.23438.20705-1.64062.62109s-.64063,1.10158-.70313,2.0625l-3.28125-.32812c.19531-1.81249.80859-3.11327 1.83984-3.90234s2.32031-1.18358 3.86719-1.1836c1.69531,2e-005 3.02734.45705 3.9961,1.3711s1.45311,2.05079 1.45312,3.41015c-1e-005,.77345-.13868,1.50978-.41601,2.20899s-.71681,1.43165-1.31836,2.19726c-.39845.50782-1.1172,1.23829-2.15625,2.19141s-1.69728,1.58594-1.97461,1.89844-.50196.61719-.67383.91406z"/>
<path d="m603.4361-112.84799v3.05859h-11.54297c.125-1.15625.5-2.25195 1.125-3.28711s1.85937-2.40819 3.70312-4.11914c1.48437-1.3828 2.39453-2.3203 2.73047-2.8125 .45312-.67967.67968-1.35155.67969-2.01562-1e-005-.73437-.19728-1.29882-.5918-1.69336s-.93946-.59178-1.63476-.5918c-.68751,2e-005-1.23438.20705-1.64063.62109s-.64063,1.10158-.70312,2.0625l-3.28125-.32812c.19531-1.81249.80859-3.11327 1.83984-3.90234s2.32031-1.18358 3.86719-1.1836c1.6953,2e-005 3.02733.45705 3.99609,1.3711s1.45311,2.05079 1.45313,3.41015c-2e-005,.77345-.13869,1.50978-.41602,2.20899s-.71681,1.43165-1.31836,2.19726c-.39845.50782-1.1172,1.23829-2.15625,2.19141s-1.69727,1.58594-1.97461,1.89844-.50196.61719-.67383.91406z"/>
<path d="m606.29547-113.08237h3.29297v2.35547c0,.95313-.082,1.70508-.24609,2.25586s-.47462,1.04492-.93164,1.48242-1.03712.78125-1.74024,1.03125l-.64453-1.35937c.66406-.21875 1.13672-.51954 1.41797-.90235s.42968-.90625.44531-1.57031h-1.59375z"/>
<path d="m612.3775-114.20737 3.28125-.33984c.0937.74219.37109,1.33008.83203,1.76367s.99219.65039 1.59375.65039c.6875,0 1.26953-.27929 1.7461-.83789s.71483-1.40038.71484-2.52539c-1e-005-1.05468-.23634-1.8457-.70898-2.37305s-1.0879-.791-1.84571-.79101c-.94531,1e-005-1.79297.41798-2.54297,1.2539l-2.67187-.38671 1.6875-8.94141h8.70703v3.08203h-6.21094l-.51562,2.91797c.73437-.36718 1.48437-.55077 2.25-.55078 1.46093,1e-005 2.69921.53126 3.71484,1.59375s1.52343,2.44141 1.52344,4.13672c-1e-005,1.41406-.41017,2.67578-1.23047,3.78515-1.1172,1.51563-2.66798,2.27344-4.65234,2.27344-1.58595,0-2.87891-.42578-3.87891-1.27734s-1.59766-1.99609-1.79297-3.4336z"/>
<path d="m625.67828-123.52377c0-1.03905.36524-1.92186 1.09571-2.64844s1.61132-1.08983 2.64257-1.08984 1.91211.36525 2.64258,1.0957 1.0957,1.61134 1.09571,2.64258-.36525,1.91212-1.09571,2.64257-1.61133,1.09572-2.64258,1.09571-1.91211-.36523-2.64257-1.09571-1.09571-1.61131-1.09571-2.64257zm1.94532,0c-1e-005,.4922.17577.91407.52734,1.26562s.77343.52736 1.26562.52735 .91406-.17577 1.26563-.52735 .52734-.77342.52734-1.26562-.17578-.91405-.52734-1.26563-.77344-.52733-1.26563-.52734-.91406.17579-1.26562.52734-.52735.77345-.52734,1.26563z"/>
</g>
<g font-family="Sans" font-size="40" letter-spacing="0" transform="rotate(61.3789)" word-spacing="0">
<path d="m621.07623-565.16705v-17.17969h12.73828v2.90625h-9.26953v3.80859h8.625v2.89453h-8.625v4.67579h9.59766v2.89453z"/>
<path d="m637.14264-565.16705v-17.17969h3.375l7.03125,11.47266v-11.47266h3.22266v17.17969h-3.48047l-6.92578-11.20313v11.20313z"/>
<path d="m654.45123-565.16705v-17.17969h12.73828v2.90625h-9.26953v3.80859h8.625v2.89453h-8.625v4.67579h9.59766v2.89453z"/>
<path d="m628.03717-548.13971-3.1875.35156c-.0781-.65623-.28126-1.14061-.60937-1.45312s-.75392-.46874-1.27735-.46875c-.69532,1e-005-1.28321.31251-1.76367.9375-.48047.62501-.78321,1.92579-.9082,3.90234 .8203-.96874 1.83983-1.45311 3.05859-1.45312 1.37499,1e-005 2.55272.52344 3.5332,1.57031s1.47069,2.39844 1.47071,4.05469c-2e-005,1.75781-.51564,3.16797-1.54688,4.23047s-2.35548,1.59375-3.97265,1.59375c-1.73438,0-3.16016-.67383-4.27735-2.02149s-1.67578-3.55663-1.67578-6.62695c0-3.14843.58203-5.41796 1.74609-6.8086s2.67578-2.08592 4.53516-2.08593c1.30468,1e-005 2.38476.36525 3.24023,1.0957s1.40038,1.79103 1.63477,3.18164zm-7.46484,7.18359c-1e-005,1.07032.24609,1.89649.73828,2.47852s1.05468.87305 1.6875.87305c.60937,0 1.11718-.23828 1.52344-.71485s.60936-1.25781.60937-2.34375c-1e-005-1.11718-.21876-1.93554-.65625-2.45508s-.98438-.77928-1.64062-.77929c-.63282,1e-005-1.16798.24805-1.60547.74414s-.65626,1.22852-.65625,2.19726z"/>
<path d="m630.2403-549.05377v-3.0586h11.26171v2.39063c-.92969.91408-1.87501,2.22657-2.83593,3.9375s-1.69337,3.5293-2.19727,5.45508-.75196,3.64648-.74414,5.16211h-3.17578c.0547-2.375.54492-4.79687 1.4707-7.26563s2.1621-4.67577 3.70899-6.62109z"/>
<path d="m644.22076-538.46002h3.29297v2.35547c0,.95312-.082,1.70507-.24609,2.25586s-.47461,1.04492-.93164,1.48242-1.03711.78124-1.74024,1.03125l-.64453-1.35938c.66406-.21875 1.13672-.51953 1.41797-.90234s.42969-.90625.44531-1.57031h-1.59375z"/>
<path d="m650.3028-539.58502 3.28125-.33985c.0937.7422.37108,1.33009.83203,1.76368s.99218.65039 1.59375.65039c.68749,0 1.26952-.2793 1.74609-.83789s.71483-1.40039.71484-2.52539c-1e-005-1.05469-.23633-1.8457-.70898-2.37305s-1.0879-.79101-1.8457-.79102c-.94532,1e-005-1.79298.41798-2.54297,1.25391l-2.67188-.38672 1.6875-8.94141h8.70703v3.08204h-6.21093l-.51563,2.91796c.73437-.36717 1.48437-.55077 2.25-.55078 1.46093,1e-005 2.69921.53126 3.71485,1.59375s1.52342,2.44142 1.52343,4.13672c-1e-005,1.41407-.41017,2.67579-1.23047,3.78516-1.11719,1.51562-2.66797,2.27344-4.65234,2.27344-1.58594,0-2.87891-.42579-3.87891-1.27735s-1.59765-1.99609-1.79296-3.43359z"/>
<path d="m663.60358-548.90143c0-1.03905.36523-1.92186 1.0957-2.64844s1.61132-1.08982 2.64258-1.08984 1.9121.36525 2.64258,1.0957 1.09569,1.61135 1.0957,2.64258-.36524,1.91212-1.0957,2.64258-1.61134,1.09571-2.64258,1.0957-1.91211-.36522-2.64258-1.0957-1.0957-1.61132-1.0957-2.64258zm1.94531,0c0,.4922.17578.91408.52734,1.26563s.77344.52735 1.26563.52734 .91405-.17577 1.26562-.52734 .52734-.77343.52735-1.26563-.17579-.91405-.52735-1.26562-.77344-.52733-1.26562-.52735-.91407.1758-1.26563.52735-.52734.77345-.52734,1.26562z"/>
</g>
<g font-family="Sans" font-size="40" letter-spacing="0" transform="matrix(-.41244,.91098,-.91098,-.41244,0,0)" word-spacing="0">
<path d="m178.72565-969.48926v-17.17969h12.73828v2.90625h-9.26953v3.8086h8.625v2.89453h-8.625v4.67578h9.59765v2.89453z"/>
<path d="m193.87799-975.0791 3.375-.32813c.20312,1.13282.61523,1.96485 1.23633,2.4961s1.45898.79687 2.51367.79687c1.11718,0 1.95898-.23632 2.52539-.70898s.8496-1.02539.84961-1.65821c-1e-005-.40624-.11915-.75194-.35742-1.0371s-.65431-.5332-1.24805-.74415c-.40626-.14061-1.33204-.39061-2.77734-.75-1.85938-.46092-3.16407-1.02733-3.91406-1.69921-1.05469-.94531-1.58204-2.09765-1.58204-3.45704 0-.87498.24805-1.69334.74415-2.45507s1.21093-1.34178 2.14453-1.74024 2.06054-.59764 3.38086-.59765c2.15624,1e-005 3.77928.47267 4.86914,1.41796s1.66209,2.20705 1.71679,3.78516l-3.46875.15234c-.14845-.88279-.4668-1.51756-.95507-1.90429s-1.22072-.58007-2.19727-.58008c-1.00782,1e-005-1.79688.20705-2.36719.62109-.36719.26564-.55078.62111-.55078,1.06641 0,.40626.17187.75392.51563,1.04297 .43749.3672 1.49999.75001 3.1875,1.14844s2.93553.81055 3.74414,1.23632 1.44139,1.00783 1.89843,1.7461 .68554,1.65039.68555,2.73633c-1e-005,.98437-.27345,1.90625-.82031,2.76562s-1.32033,1.49805-2.32031,1.91602-2.24611.62695-3.73829.62695c-2.17188,0-3.83984-.50195-5.0039-1.50586s-1.85938-2.46679-2.08594-4.38867z"/>
<path d="m210.78815-969.48926v-17.17969h12.73828v2.90625h-9.26953v3.8086h8.625v2.89453h-8.625v4.67578h9.59765v2.89453z"/>
<path d="m175.62018-939.48926h-3.29297v-12.41015c-1.20313,1.12501-2.6211,1.95704-4.25391,2.49609v-2.98828c.85938-.28124 1.79297-.81444 2.80078-1.59961s1.69922-1.70116 2.07422-2.74805h2.67188z"/>
<path d="m188.97955-939.48926h-3.29297v-12.41015c-1.20313,1.12501-2.62109,1.95704-4.2539,2.49609v-2.98828c.85937-.28124 1.79296-.81444 2.80078-1.59961s1.69921-1.70116 2.07422-2.74805h2.67187z"/>
<path d="m205.03424-942.54785v3.05859h-11.54297c.125-1.15625.5-2.25195 1.125-3.28711s1.85937-2.40819 3.70313-4.11914c1.48437-1.3828 2.39452-2.3203 2.73047-2.8125 .45311-.67967.67967-1.35155.67968-2.01562-1e-005-.73436-.19727-1.29882-.59179-1.69336s-.93946-.59178-1.63477-.5918c-.68751,2e-005-1.23438.20705-1.64062.62109s-.64063,1.10158-.70313,2.0625l-3.28125-.32812c.19531-1.81249.80859-3.11327 1.83984-3.90234s2.32031-1.18358 3.86719-1.1836c1.69531,2e-005 3.02734.45705 3.9961,1.3711s1.45311,2.05079 1.45312,3.41015c-1e-005,.77345-.13868,1.50978-.41601,2.20899s-.71681,1.43165-1.31836,2.19726c-.39845.50782-1.1172,1.23829-2.15625,2.19141s-1.69728,1.58594-1.97461,1.89844-.50196.61719-.67383.91406z"/>
<path d="m207.89362-942.78223h3.29296v2.35547c0,.95313-.082,1.70508-.24609,2.25586s-.47461,1.04492-.93164,1.48242-1.03711.78125-1.74023,1.03125l-.64454-1.35937c.66406-.21875 1.13672-.51953 1.41797-.90235s.42969-.90625.44532-1.57031h-1.59375z"/>
<path d="m213.97565-943.90723 3.28125-.33984c.0937.74219.37109,1.33008.83203,1.76367s.99218.65039 1.59375.65039c.68749,0 1.26952-.27929 1.74609-.83789s.71484-1.40038.71485-2.52539c-1e-005-1.05468-.23634-1.84569-.70899-2.37305s-1.0879-.791-1.8457-.79101c-.94532,1e-005-1.79298.41798-2.54297,1.2539l-2.67188-.38671 1.6875-8.94141h8.70704v3.08203h-6.21094l-.51563,2.91797c.73437-.36718 1.48437-.55077 2.25-.55078 1.46093,1e-005 2.69921.53126 3.71485,1.59375s1.52342,2.44141 1.52343,4.13672c-1e-005,1.41406-.41016,2.67578-1.23046,3.78515-1.1172,1.51563-2.66798,2.27344-4.65235,2.27344-1.58594,0-2.87891-.42578-3.8789-1.27734s-1.59766-1.99609-1.79297-3.4336z"/>
<path d="m227.27643-953.22363c0-1.03905.36523-1.92186 1.0957-2.64844s1.61133-1.08983 2.64258-1.08984 1.9121.36525 2.64258,1.0957 1.09569,1.61134 1.0957,2.64258-.36524,1.91212-1.0957,2.64258-1.61134,1.09571-2.64258,1.0957-1.91211-.36523-2.64258-1.0957-1.0957-1.61132-1.0957-2.64258zm1.94531,0c0,.4922.17578.91407.52734,1.26562s.77344.52736 1.26563.52735 .91406-.17577 1.26562-.52735 .52734-.77342.52735-1.26562-.17579-.91405-.52735-1.26563-.77344-.52733-1.26562-.52734-.91407.1758-1.26563.52734-.52734.77345-.52734,1.26563z"/>
</g>
<g font-family="Sans" font-size="40" letter-spacing="0" transform="matrix(-.89426,.44755,-.44755,-.89426,0,0)" word-spacing="0">
<path d="m-211.78841-974.75922 3.375-.32812c.20312,1.13282.61523,1.96485 1.23633,2.49609s1.45898.79688 2.51367.79688c1.11718,0 1.95898-.23633 2.52539-.70899s.8496-1.02538.84961-1.6582c-1e-005-.40624-.11915-.75195-.35742-1.03711s-.65431-.5332-1.24805-.74414c-.40625-.14062-1.33203-.39062-2.77734-.75-1.85938-.46093-3.16407-1.02734-3.91406-1.69922-1.05469-.9453-1.58203-2.09764-1.58203-3.45703 0-.87499.24804-1.69335.74414-2.45508s1.21093-1.34178 2.14453-1.74023 2.06054-.59764 3.38086-.59766c2.15624,2e-005 3.77928.47267 4.86914,1.41797s1.66209,2.20705 1.7168,3.78516l-3.46875.15234c-.14845-.8828-.46681-1.51756-.95508-1.9043s-1.22071-.58006-2.19727-.58008c-1.00782,2e-005-1.79688.20705-2.36719.6211-.36719.26564-.55078.62111-.55078,1.0664 0,.40627.17187.75392.51563,1.04297 .43749.3672 1.49999.75001 3.1875,1.14844s2.93553.81056 3.74414,1.23633 1.44139,1.00782 1.89844,1.74609 .68553,1.6504.68554,2.73633c-1e-005,.98438-.27345,1.90625-.82031,2.76563s-1.32032,1.49804-2.32031,1.91601-2.2461.62695-3.73828.62695c-2.17188,0-3.83985-.50195-5.00391-1.50585s-1.85937-2.4668-2.08594-4.38868z"/>
<path d="m-195.75716-974.75922 3.375-.32812c.20312,1.13282.61523,1.96485 1.23633,2.49609s1.45898.79688 2.51367.79688c1.11718,0 1.95898-.23633 2.52539-.70899s.8496-1.02538.84961-1.6582c-1e-005-.40624-.11915-.75195-.35742-1.03711s-.65431-.5332-1.24805-.74414c-.40625-.14062-1.33203-.39062-2.77734-.75-1.85938-.46093-3.16407-1.02734-3.91406-1.69922-1.05469-.9453-1.58203-2.09764-1.58203-3.45703 0-.87499.24804-1.69335.74414-2.45508s1.21093-1.34178 2.14453-1.74023 2.06054-.59764 3.38086-.59766c2.15624,2e-005 3.77928.47267 4.86914,1.41797s1.66209,2.20705 1.7168,3.78516l-3.46875.15234c-.14845-.8828-.46681-1.51756-.95508-1.9043s-1.22071-.58006-2.19727-.58008c-1.00782,2e-005-1.79688.20705-2.36719.6211-.36719.26564-.55078.62111-.55078,1.0664 0,.40627.17187.75392.51563,1.04297 .43749.3672 1.49999.75001 3.1875,1.14844s2.93553.81056 3.74414,1.23633 1.44139,1.00782 1.89844,1.74609 .68553,1.6504.68554,2.73633c-1e-005,.98438-.27345,1.90625-.82031,2.76563s-1.32032,1.49804-2.32031,1.91601-2.2461.62695-3.73828.62695c-2.17188,0-3.83985-.50195-5.00391-1.50585s-1.85937-2.4668-2.08594-4.38868z"/>
<path d="m-178.847-969.16937v-17.17969h12.73828v2.90625h-9.26953v3.80859h8.625v2.89453h-8.625v4.67579h9.59766v2.89453z"/>
<path d="m-214.01497-939.16937h-3.29297v-12.41016c-1.20313,1.12501-2.62109,1.95704-4.2539,2.49609v-2.98828c.85937-.28123 1.79296-.81444 2.80078-1.59961s1.69921-1.70115 2.07422-2.74804h2.67187z"/>
<path d="m-209.0345-943.58734 3.28125-.33985c.0937.7422.37109,1.33009.83203,1.76368s.99218.65039 1.59375.65039c.68749,0 1.26952-.2793 1.74609-.83789s.71484-1.40039.71485-2.52539c-1e-005-1.05468-.23634-1.8457-.70899-2.37305s-1.08789-.79101-1.8457-.79102c-.94532,1e-005-1.79297.41798-2.54297,1.25391l-2.67187-.38672 1.6875-8.94141h8.70703v3.08204h-6.21094l-.51562,2.91796c.73437-.36717 1.48436-.55076 2.25-.55078 1.46092,2e-005 2.6992.53126 3.71484,1.59375s1.52342,2.44142 1.52344,4.13672c-2e-005,1.41407-.41017,2.67579-1.23047,3.78516-1.1172,1.51562-2.66798,2.27344-4.65235,2.27344-1.58594,0-2.87891-.42578-3.8789-1.27735s-1.59766-1.99609-1.79297-3.43359z"/>
<path d="m-195.722-953.05609v-3.0586h11.26172v2.39063c-.9297.91408-1.87501,2.22657-2.83594,3.9375s-1.69337,3.5293-2.19726,5.45508-.75196,3.64648-.74415,5.16211h-3.17578c.0547-2.375.54492-4.79687 1.47071-7.26563s2.1621-4.67577 3.70898-6.62109z"/>
<path d="m-181.74153-942.46234h3.29297v2.35547c-1e-005,.95312-.082,1.70507-.2461,2.25586s-.47461,1.04492-.93164,1.48242-1.03711.78125-1.74023,1.03125l-.64453-1.35938c.66406-.21875 1.13671-.51953 1.41797-.90234s.42968-.90625.44531-1.57031h-1.59375z"/>
<path d="m-175.6595-943.58734 3.28125-.33985c.0937.7422.37109,1.33009.83203,1.76368s.99218.65039 1.59375.65039c.68749,0 1.26952-.2793 1.74609-.83789s.71484-1.40039.71485-2.52539c-1e-005-1.05468-.23634-1.8457-.70899-2.37305s-1.08789-.79101-1.8457-.79102c-.94532,1e-005-1.79297.41798-2.54297,1.25391l-2.67187-.38672 1.6875-8.94141h8.70703v3.08204h-6.21094l-.51562,2.91796c.73437-.36717 1.48436-.55076 2.25-.55078 1.46092,2e-005 2.6992.53126 3.71484,1.59375s1.52342,2.44142 1.52344,4.13672c-2e-005,1.41407-.41017,2.67579-1.23047,3.78516-1.1172,1.51562-2.66798,2.27344-4.65235,2.27344-1.58594,0-2.87891-.42578-3.8789-1.27735s-1.59766-1.99609-1.79297-3.43359z"/>
<path d="m-162.35872-952.90375c0-1.03905.36523-1.92186 1.0957-2.64844s1.61133-1.08982 2.64258-1.08984 1.91211.36525 2.64258,1.0957 1.0957,1.61135 1.0957,2.64258-.36524,1.91212-1.0957,2.64258-1.61133,1.09571-2.64258,1.0957-1.91211-.36522-2.64258-1.0957-1.0957-1.61131-1.0957-2.64258zm1.94531,0c0,.4922.17578.91408.52735,1.26563s.77343.52735 1.26562.52734 .91406-.17577 1.26563-.52734 .52733-.77343.52734-1.26563-.17579-.91405-.52734-1.26562-.77345-.52733-1.26563-.52735-.91406.1758-1.26562.52735-.52735.77345-.52735,1.26562z"/>
</g>
<g font-family="Sans" font-size="40" letter-spacing="0" transform="matrix(-.91479,-.40393,.40393,-.91479,0,0)" word-spacing="0">
<path d="m-629.02307-585.10449 3.375-.32813c.20312,1.13282.61523,1.96485 1.23633,2.4961s1.45897.79687 2.51367.79687c1.11718,0 1.95897-.23632 2.52539-.70898s.8496-1.02539.84961-1.65821c-1e-005-.40624-.11915-.75194-.35742-1.03711s-.65431-.53319-1.24805-.74414c-.40626-.14061-1.33204-.39061-2.77734-.75-1.85938-.46093-3.16407-1.02733-3.91407-1.69921-1.05469-.94531-1.58203-2.09765-1.58203-3.45704 0-.87498.24805-1.69334.74414-2.45507s1.21094-1.34178 2.14453-1.74024 2.06054-.59764 3.38086-.59765c2.15624,1e-005 3.77929.47267 4.86914,1.41796s1.6621,2.20705 1.7168,3.78516l-3.46875.15234c-.14845-.8828-.46681-1.51756-.95508-1.90429s-1.22071-.58007-2.19726-.58008c-1.00782,1e-005-1.79688.20704-2.36719.62109-.36719.26564-.55079.62111-.55078,1.06641-1e-005,.40626.17187.75392.51562,1.04297 .4375.3672 1.5.75001 3.1875,1.14844s2.93554.81055 3.74414,1.23632 1.4414,1.00782 1.89844,1.7461 .68553,1.65039.68555,2.73633c-2e-005,.98437-.27345,1.90625-.82031,2.76562s-1.32033,1.49805-2.32032,1.91602-2.2461.62695-3.73828.62695c-2.17188,0-3.83985-.50195-5.0039-1.50586s-1.85938-2.46679-2.08594-4.38867z"/>
<path d="m-612.99182-585.10449 3.375-.32813c.20312,1.13282.61523,1.96485 1.23633,2.4961s1.45897.79687 2.51367.79687c1.11718,0 1.95897-.23632 2.52539-.70898s.8496-1.02539.84961-1.65821c-1e-005-.40624-.11915-.75194-.35742-1.03711s-.65431-.53319-1.24805-.74414c-.40626-.14061-1.33204-.39061-2.77734-.75-1.85938-.46093-3.16407-1.02733-3.91407-1.69921-1.05469-.94531-1.58203-2.09765-1.58203-3.45704 0-.87498.24805-1.69334.74414-2.45507s1.21094-1.34178 2.14453-1.74024 2.06054-.59764 3.38086-.59765c2.15624,1e-005 3.77929.47267 4.86914,1.41796s1.6621,2.20705 1.7168,3.78516l-3.46875.15234c-.14845-.8828-.46681-1.51756-.95508-1.90429s-1.22071-.58007-2.19726-.58008c-1.00782,1e-005-1.79688.20704-2.36719.62109-.36719.26564-.55079.62111-.55078,1.06641-1e-005,.40626.17187.75392.51562,1.04297 .4375.3672 1.5.75001 3.1875,1.14844s2.93554.81055 3.74414,1.23632 1.4414,1.00782 1.89844,1.7461 .68553,1.65039.68555,2.73633c-2e-005,.98437-.27345,1.90625-.82031,2.76562s-1.32033,1.49805-2.32032,1.91602-2.2461.62695-3.73828.62695c-2.17188,0-3.83985-.50195-5.0039-1.50586s-1.85938-2.46679-2.08594-4.38867z"/>
<path d="m-593.64417-579.51465-4.10156-17.17969h3.55078l2.58985,11.80079 3.14062-11.80079h4.125l3.01172,12 2.63672-12h3.49219l-4.17188,17.17969h-3.67969l-3.42187-12.84375-3.41016,12.84375z"/>
<path d="m-625.24963-552.57324v3.05859h-11.54297c.125-1.15625.5-2.25195 1.125-3.28711s1.85937-2.4082 3.70312-4.11914c1.48437-1.3828 2.39453-2.3203 2.73047-2.8125 .45312-.67968.67968-1.35155.67969-2.01562-1e-005-.73437-.19728-1.29882-.5918-1.69336s-.93946-.59179-1.63476-.5918c-.68751,1e-005-1.23438.20705-1.64063.62109s-.64063,1.10158-.70312,2.0625l-3.28125-.32812c.19531-1.81249.80859-3.11327 1.83984-3.90234s2.32031-1.18358 3.86719-1.1836c1.6953,2e-005 3.02733.45705 3.99609,1.3711s1.45311,2.05079 1.45313,3.41015c-2e-005,.77345-.13869,1.50978-.41602,2.20899s-.71681,1.43165-1.31836,2.19726c-.39845.50782-1.1172,1.23829-2.15625,2.19141s-1.69727,1.58594-1.97461,1.89844-.50196.61719-.67383.91406z"/>
<path d="m-617.44495-566.76465c1.66406,2e-005 2.96484.59377 3.90235,1.78125 1.11717,1.40627 1.67577,3.73829 1.67578,6.9961-1e-005,3.25-.56251,5.58594-1.6875,7.00781-.9297,1.17187-2.22657,1.75781-3.89063,1.75781-1.67188,0-3.01953-.64258-4.04297-1.92773s-1.53515-3.57617-1.53515-6.87305c0-3.23436.5625-5.56249 1.6875-6.98438 .92968-1.17185 2.22656-1.75779 3.89062-1.75781zm0,2.73047c-.39844,1e-005-.75391.12697-1.0664.38086s-.5547.709-.72657,1.36523c-.22656.85158-.33984,2.28517-.33984,4.30079s.10156,3.40039.30469,4.15429 .45898,1.25586.76758,1.50586 .6621.375 1.06054.375 .7539-.12695 1.06641-.38086 .55468-.70898.72656-1.36523c.22656-.84375.33984-2.27343.33985-4.28906s-.10157-3.40038-.30469-4.1543-.45899-1.2578-.76758-1.51172-.66212-.38085-1.06055-.38086z"/>
<path d="m-598.53088-552.57324v3.05859h-11.54297c.125-1.15625.5-2.25195 1.125-3.28711s1.85937-2.4082 3.70312-4.11914c1.48437-1.3828 2.39453-2.3203 2.73047-2.8125 .45312-.67968.67968-1.35155.67969-2.01562-1e-005-.73437-.19728-1.29882-.5918-1.69336s-.93946-.59179-1.63476-.5918c-.68751,1e-005-1.23438.20705-1.64063.62109s-.64063,1.10158-.70312,2.0625l-3.28125-.32812c.19531-1.81249.80859-3.11327 1.83984-3.90234s2.32031-1.18358 3.86719-1.1836c1.6953,2e-005 3.02733.45705 3.99609,1.3711s1.45311,2.05079 1.45313,3.41015c-2e-005,.77345-.13869,1.50978-.41602,2.20899s-.71681,1.43165-1.31836,2.19726c-.39845.50782-1.1172,1.23829-2.15625,2.19141s-1.69727,1.58594-1.97461,1.89844-.50196.61719-.67383.91406z"/>
<path d="m-595.67151-552.80762h3.29297v2.35547c0,.95313-.082,1.70508-.24609,2.25586s-.47462,1.04492-.93164,1.48242-1.03712.78125-1.74024,1.03125l-.64453-1.35937c.66406-.21875 1.13672-.51954 1.41797-.90235s.42968-.90625.44531-1.57031h-1.59375z"/>
<path d="m-589.58948-553.93262 3.28125-.33984c.0937.74219.37109,1.33008.83203,1.76367s.99219.65039 1.59375.65039c.6875,0 1.26953-.27929 1.7461-.83789s.71483-1.40039.71484-2.52539c-1e-005-1.05468-.23634-1.8457-.70898-2.37305s-1.0879-.791-1.84571-.79101c-.94531,1e-005-1.79297.41798-2.54297,1.2539l-2.67187-.38671 1.6875-8.94141h8.70703v3.08203h-6.21094l-.51562,2.91797c.73437-.36718 1.48437-.55077 2.25-.55078 1.46093,1e-005 2.69921.53126 3.71484,1.59375s1.52343,2.44141 1.52344,4.13672c-1e-005,1.41406-.41017,2.67578-1.23047,3.78515-1.1172,1.51563-2.66798,2.27344-4.65234,2.27344-1.58595,0-2.87891-.42578-3.87891-1.27734s-1.59766-1.99609-1.79297-3.4336z"/>
<path d="m-576.2887-563.24902c0-1.03905.36524-1.92186 1.09571-2.64844s1.61132-1.08983 2.64257-1.08984 1.91211.36525 2.64258,1.0957 1.0957,1.61134 1.09571,2.64258-.36525,1.91212-1.09571,2.64257-1.61133,1.09572-2.64258,1.09571-1.91211-.36523-2.64257-1.09571-1.09571-1.61131-1.09571-2.64257zm1.94532,0c-1e-005,.4922.17577.91407.52734,1.26562s.77343.52736 1.26562.52735 .91406-.17577 1.26563-.52735 .52734-.77342.52734-1.26562-.17578-.91405-.52734-1.26563-.77344-.52733-1.26563-.52734-.91406.17579-1.26562.52734-.52735.77345-.52734,1.26563z"/>
</g>
<g font-family="Sans" font-size="40" letter-spacing="0" transform="matrix(-.42131,-.90692,.90692,-.42131,0,0)" word-spacing="0">
<path d="m-600.76727-128.33885-4.10157-17.17969h3.55079l2.58984,11.80078 3.14062-11.80078h4.125l3.01172,12 2.63672-12h3.49219l-4.17188,17.17969h-3.67968l-3.42188-12.84375-3.41015,12.84375z"/>
<path d="m-581.44305-133.9287 3.375-.32812c.20312,1.13282.61523,1.96485 1.23632,2.49609s1.45898.79688 2.51368.79688c1.11717,0 1.95897-.23633 2.52539-.70899s.84959-1.02538.84961-1.6582c-2e-005-.40624-.11916-.75195-.35743-1.03711s-.6543-.5332-1.24804-.74414c-.40626-.14062-1.33204-.39062-2.77735-.75-1.85938-.46093-3.16406-1.02733-3.91406-1.69922-1.05469-.9453-1.58203-2.09764-1.58203-3.45703 0-.87499.24804-1.69334.74414-2.45508s1.21093-1.34178 2.14453-1.74023 2.06054-.59764 3.38086-.59766c2.15624,2e-005 3.77929.47268 4.86914,1.41797s1.6621,2.20705 1.7168,3.78516l-3.46875.15234c-.14845-.8828-.46681-1.51756-.95508-1.9043s-1.22071-.58006-2.19727-.58007c-1.00781,1e-005-1.79688.20704-2.36718.62109-.3672.26564-.55079.62111-.55078,1.06641-1e-005,.40626.17187.75391.51562,1.04296 .4375.3672 1.49999.75002 3.1875,1.14844s2.93554.81056 3.74414,1.23633 1.44139,1.00782 1.89844,1.74609 .68553,1.6504.68555,2.73633c-2e-005,.98438-.27346,1.90625-.82032,2.76563s-1.32032,1.49804-2.32031,1.91601-2.2461.62696-3.73828.62696c-2.17188,0-3.83985-.50196-5.00391-1.50586s-1.85937-2.4668-2.08593-4.38868z"/>
<path d="m-562.0954-128.33885-4.10156-17.17969h3.55078l2.58984,11.80078 3.14063-11.80078h4.125l3.01172,12 2.63672-12h3.49218l-4.17187,17.17969h-3.67969l-3.42187-12.84375-3.41016,12.84375z"/>
<path d="m-597.00555-101.39745v3.0586h-11.54297c.125-1.15625.5-2.25195 1.125-3.28711 .62499-1.03515 1.85937-2.4082 3.70312-4.11914 1.48437-1.38281 2.39453-2.3203 2.73047-2.8125 .45312-.67968.67968-1.35155.67969-2.01563-1e-005-.73436-.19728-1.29881-.5918-1.69336s-.93946-.59178-1.63476-.59179c-.68751,1e-005-1.23438.20704-1.64063.62109s-.64063,1.10158-.70312,2.0625l-3.28125-.32812c.19531-1.81249.80859-3.11327 1.83984-3.90235s2.32031-1.18357 3.86719-1.18359c1.6953,2e-005 3.02733.45705 3.99609,1.37109s1.45311,2.0508 1.45313,3.41016c-2e-005,.77345-.13869,1.50977-.41602,2.20898s-.71681,1.43165-1.31836,2.19727c-.39845.50782-1.1172,1.23829-2.15625,2.1914s-1.69727,1.58595-1.97461,1.89844-.50196.61719-.67383.91406z"/>
<path d="m-588.31024-98.33885v-3.45703h-7.03125v-2.88282l7.45312-10.91015h2.76563v10.89844h2.13281v2.89453h-2.13281v3.45703zm0-6.35156v-5.8711l-3.94922,5.8711z"/>
<path d="m-581.4079-112.22557v-3.05859h11.26172v2.39062c-.9297.91408-1.87501,2.22658-2.83594,3.9375s-1.69336,3.5293-2.19726,5.45508-.75196,3.64649-.74414,5.16211h-3.17578c.0547-2.375.54491-4.79687 1.4707-7.26563s2.1621-4.67577 3.70898-6.62109z"/>
<path d="m-567.42743-101.63182h3.29297v2.35547c-1e-005,.95313-.082,1.70508-.24609,2.25586s-.47462,1.04492-.93164,1.48242-1.03712.78125-1.74024,1.03125l-.64453-1.35938c.66406-.21875 1.13672-.51953 1.41797-.90234s.42968-.90625.44531-1.57031h-1.59375z"/>
<path d="m-561.3454-102.75682 3.28125-.33984c.0937.74219.37109,1.33008.83203,1.76367s.99218.65039 1.59375.65039c.6875,0 1.26953-.2793 1.7461-.83789s.71483-1.40039.71484-2.52539c-1e-005-1.05468-.23634-1.8457-.70898-2.37305s-1.0879-.79101-1.84571-.79102c-.94531,1e-005-1.79297.41798-2.54297,1.25391l-2.67187-.38672 1.6875-8.9414h8.70703v3.08203h-6.21094l-.51562,2.91797c.73437-.36718 1.48437-.55077 2.25-.55079 1.46093,2e-005 2.69921.53127 3.71484,1.59375s1.52343,2.44142 1.52344,4.13672c-1e-005,1.41407-.41017,2.67579-1.23047,3.78516-1.1172,1.51563-2.66798,2.27344-4.65234,2.27344-1.58595,0-2.87891-.42578-3.87891-1.27734s-1.59766-1.99609-1.79297-3.43359z"/>
<path d="m-548.04462-112.07323c0-1.03904.36524-1.92186 1.09571-2.64843s1.61132-1.08983 2.64257-1.08985 1.91211.36525 2.64258,1.0957 1.0957,1.61135 1.09571,2.64258-.36525,1.91212-1.09571,2.64258-1.61133,1.09571-2.64258,1.0957-1.91211-.36522-2.64257-1.0957-1.09571-1.61131-1.09571-2.64258zm1.94532,0c-1e-005,.4922.17577.91408.52734,1.26563s.77343.52735 1.26562.52734 .91406-.17577 1.26563-.52734 .52734-.77343.52734-1.26563-.17578-.91404-.52734-1.26562-.77344-.52733-1.26563-.52735-.91406.1758-1.26562.52735-.52735.77345-.52734,1.26562z"/>
</g>
<g font-family="Sans" font-size="35.58797" letter-spacing="0" transform="matrix(.4415,-.97987,.92414,.21395,0,0)" word-spacing="0">
<path d="m-262.96944,260.4848-3.64916-15.28475h3.15913l2.30418,10.49914 2.79421-10.49914h3.67001l2.67953,10.67639 2.34589-10.67639h3.10699l-3.71171,15.28475h-3.27382l-3.04444-11.42707-3.03401,11.42707z"/>
<path d="m-244.96345,260.4848v-15.28475h3.00273l6.2557,10.20721v-10.20721h2.86719v15.28475h-3.09657l-6.16186-9.96741v9.96741z"/>
<path d="m-227.39537,260.4848-3.64916-15.28475h3.15913l2.30418,10.49914 2.79421-10.49914h3.67001l2.67953,10.67639 2.34589-10.67639h3.10699l-3.71171,15.28475h-3.27382l-3.04444-11.42707-3.03401,11.42707z"/>
<path d="m-259.03878,284.45455v2.72123h-10.26977c.11121-1.02871.44485-2.00356 1.00091-2.92454s1.65429-2.14257 3.29467-3.66479c1.32064-1.23028 2.13041-2.06438 2.4293-2.50228 .40314-.60471.60471-1.20248.60472-1.7933-1e-005-.65337-.17552-1.15556-.52653-1.50658s-.83583-.52651-1.45444-.52653c-.61168,2e-005-1.09823.18421-1.45967.55259s-.56997.98007-.62557,1.83501l-2.91932-.29194c.17376-1.61256.7194-2.76987 1.6369-3.47191s2.06438-1.05303 3.44064-1.05304c1.50831,1e-005 2.69342.40663 3.55532,1.21986s1.29283,1.82459 1.29284,3.03401c-1e-005,.68814-.12338,1.34325-.37012,1.96533s-.63775,1.27374-1.17295,1.95491c-.3545.45181-.99397,1.1017-1.91841,1.94969s-1.51006,1.41101-1.75681,1.68904-.44659.54912-.59951.81324z"/>
<path d="m-256.98482,283.64131 2.83591-.31278c.0695.57691.25023,1.00439.54217,1.28241s.67769.41705 1.1573.41705c.60471,0 1.11907-.27803 1.54307-.83409s.69507-1.70989.81324-3.46149c-.73679.85495-1.65776,1.28243-2.76293,1.28242-1.20249,1e-005-2.23989-.46396-3.11221-1.39189s-1.30849-2.13562-1.30848-3.62309c-1e-005-1.55002.46048-2.79942 1.38146-3.74821s2.09392-1.42316 3.51883-1.42317c1.55002,1e-005 2.82201.59952 3.81598,1.79851s1.49093,3.1713 1.49094,5.91685c-1e-005,2.79422-.51784,4.80994-1.5535,6.04717s-2.38412,1.85586-4.04535,1.85586c-1.19554,0-2.16169-.318-2.89847-.95399s-1.20944-1.58651-1.41796-2.85156zm6.63104-6.40166c-1e-005-.9453-.21722-1.6786-.65164-2.19992s-.93662-.78195-1.50658-.78197c-.54216,2e-005-.99223.21375-1.35019.64121s-.53695,1.12778-.53694,2.10088c-1e-005,.98701.19461,1.71163.58386,2.17385s.87579.69335 1.45966.69334c.56301,1e-005 1.0374-.22242 1.42318-.66727s.57864-1.09822.57865-1.96012z"/>
<path d="m-235.26712,284.45455v2.72123h-10.26977c.11121-1.02871.44484-2.00356 1.00091-2.92454s1.65428-2.14257 3.29466-3.66479c1.32065-1.23028 2.13041-2.06438 2.4293-2.50228 .40314-.60471.60471-1.20248.60472-1.7933-1e-005-.65337-.17552-1.15556-.52652-1.50658s-.83584-.52651-1.45445-.52653c-.61168,2e-005-1.09823.18421-1.45967.55259s-.56996.98007-.62557,1.83501l-2.91932-.29194c.17377-1.61256.7194-2.76987 1.63691-3.47191s2.06437-1.05303 3.44063-1.05304c1.50831,1e-005 2.69342.40663 3.55532,1.21986s1.29284,1.82459 1.29285,3.03401c-1e-005,.68814-.12339,1.34325-.37013,1.96533s-.63775,1.27374-1.17295,1.95491c-.35449.45181-.99396,1.1017-1.91841,1.94969s-1.51006,1.41101-1.75681,1.68904-.44659.54912-.5995.81324z"/>
<path d="m-232.72314,284.24603h2.92975v2.09566c0,.84799-.073,1.517-.21895,2.00703s-.42226.92967-.82888,1.31891-.92272.69508-1.54828.91751l-.57344-1.20944c.59081-.19462 1.01133-.46223 1.26156-.80281s.38229-.80629.3962-1.39711h-1.41796z"/>
<path d="m-227.31196,283.24512 2.91933-.30236c.0834.66033.33015,1.18337.74025,1.56914s.88275.57865 1.41796.57865c.61166,0 1.1295-.24849 1.5535-.74547s.63599-1.24592.636-2.24684c-1e-005-.93835-.21027-1.64211-.63079-2.1113s-.9679-.70376-1.64212-.70376c-.84105,0-1.59521.37187-2.26248,1.11559l-2.37716-.34406 1.50137-7.95516h7.74664v2.74208h-5.52587l-.45875,2.59611c.65337-.32667 1.32064-.49002 2.00182-.49003 1.29979,1e-005 2.40149.47267 3.3051,1.41796s1.35539,2.17213 1.3554,3.68044c-1e-005,1.25809-.36493,2.38064-1.09475,3.36765-.99397,1.34845-2.3737,2.02268-4.13919,2.02268-1.41101,0-2.56136-.37882-3.45106-1.13646s-1.42143-1.77592-1.5952-3.05486z"/>
<path d="m-215.47826,274.95632c-1e-005-.92444.32494-1.70988.97484-2.35632s1.4336-.96961 2.3511-.96963 1.7012.32497 2.3511.97485 .97484,1.43361.97485,2.3511-.32496,1.70121-.97485,2.3511-1.4336.97485-2.3511.97484-1.7012-.32494-2.3511-.97484-.97485-1.43359-.97484-2.3511zm1.73074,0c0,.43791.15639.81325.46918,1.12602s.68812.46919 1.12602.46918 .81324-.15638 1.12603-.46918 .46917-.68811.46917-1.12602-.15639-.81323-.46917-1.12603-.68813-.46916-1.12603-.46918-.81324.15641-1.12602.46918-.46918.68814-.46918,1.12603z"/>
</g>
<g font-family="Sans" font-size="35.58797" letter-spacing="0" transform="matrix(1.00189,-.38896,.5088,.80059,0,0)" word-spacing="0">
<path d="m184.01565,230.72076v-15.28475h3.00274l6.2557,10.20721v-10.20721h2.86719v15.28475h-3.09657l-6.16186-9.96741v9.96741z"/>
<path d="m199.44638,230.72076v-15.28475h3.00273l6.2557,10.20721v-10.20721h2.86719v15.28475h-3.09657l-6.16186-9.96741v9.96741z"/>
<path d="m217.01446,230.72076-3.64916-15.28475h3.15913l2.30418,10.49915 2.79422-10.49915h3.67001l2.67952,10.67639 2.34589-10.67639h3.10699l-3.71171,15.28475h-3.27382l-3.04444-11.42707-3.03401,11.42707z"/>
<path d="m177.72868,253.35597 2.83591-.34407c.0904.72289.33364,1.27547.72984,1.65776s.87579.57344 1.43881.57344c.60471,0 1.11385-.22937 1.52743-.68813s.62035-1.07736.62036-1.85585c-1e-005-.73678-.19811-1.32064-.5943-1.7516s-.87928-.64641-1.44923-.64642c-.37535,1e-005-.82367.073-1.34498.21895l.32321-2.38759c.79239.0209 1.3971-.15117 1.81416-.5161s.62556-.84972.62557-1.45445c-1e-005-.51434-.15293-.92444-.45876-1.23028s-.71246-.45874-1.21986-.45876c-.50046,2e-005-.92793.17379-1.28241.52131s-.56997.85496-.64643,1.52222l-2.70037-.45875c.18767-.92444.47091-1.66296.84973-2.21556s.90707-.98699 1.58478-1.30327 1.43706-.47437 2.27811-.47439c1.43881,2e-005 2.59263.45877 3.46149,1.37625 .71592.7507 1.07388,1.59869 1.07389,2.54399-1e-005,1.34151-.73331,2.41193-2.19992,3.21126 .87579.18768 1.57608.6082 2.10088,1.26156s.78716,1.44229.78717,2.36674c-1e-005,1.3415-.49004,2.48491-1.47009,3.43021s-2.19993,1.41796-3.65958,1.41796c-1.38321,0-2.53009-.39793-3.44064-1.1938s-1.43881-1.83674-1.58477-3.12263z"/>
<path d="m189.6145,253.35597 2.83592-.34407c.0904.72289.33363,1.27547.72983,1.65776s.87579.57344 1.43881.57344c.60471,0 1.11386-.22937 1.52743-.68813s.62035-1.07736.62036-1.85585c-1e-005-.73678-.1981-1.32064-.59429-1.7516s-.87928-.64641-1.44924-.64642c-.37534,1e-005-.82367.073-1.34497.21895l.32321-2.38759c.79238.0209 1.3971-.15117 1.81415-.5161s.62556-.84972.62557-1.45445c-1e-005-.51434-.15292-.92444-.45875-1.23028s-.71246-.45874-1.21986-.45876c-.50046,2e-005-.92793.17379-1.28242.52131s-.56997.85496-.64642,1.52222l-2.70038-.45875c.18767-.92444.47092-1.66296.84974-2.21556s.90707-.98699 1.58477-1.30327 1.43707-.47437 2.27812-.47439c1.4388,2e-005 2.59263.45877 3.46149,1.37625 .71592.7507 1.07388,1.59869 1.07389,2.54399-1e-005,1.34151-.73332,2.41193-2.19992,3.21126 .87579.18768 1.57608.6082 2.10087,1.26156s.78717,1.44229.78718,2.36674c-1e-005,1.3415-.49004,2.48491-1.47009,3.43021s-2.19993,1.41796-3.65959,1.41796c-1.3832,0-2.53008-.39793-3.44063-1.1938s-1.43881-1.83674-1.58478-3.12263z"/>
<path d="m201.60459,245.05674v-2.72123h10.01954v2.12694c-.82715.81325-1.66819,1.98098-2.52313,3.50319s-1.50658,3.14002-1.9549,4.85338-.66902,3.24427-.66206,4.59272h-2.82549c.0487-2.11303.48481-4.26777 1.30848-6.46422s1.92362-4.16003 3.29988-5.89078z"/>
<path d="m214.043,254.48199h2.92976v2.09566c-1e-005,.84799-.073,1.51701-.21895,2.00704s-.42227.92966-.82888,1.31891-.92272.69507-1.54829.9175l-.57344-1.20944c.59082-.19462 1.01134-.46222 1.26157-.80281s.38229-.80629.39619-1.39711h-1.41796z"/>
<path d="m219.45418,253.48108 2.91933-.30236c.0834.66033.33016,1.18337.74026,1.56914s.88274.57865 1.41796.57865c.61166,0 1.12949-.24849 1.55349-.74547s.63599-1.24592.636-2.24684c-1e-005-.93835-.21027-1.64211-.63078-2.1113s-.96791-.70375-1.64212-.70376c-.84105,1e-005-1.59521.37187-2.26248,1.1156l-2.37717-.34407 1.50137-7.95516h7.74664v2.74208h-5.52587l-.45875,2.59612c.65337-.32668 1.32064-.49002 2.00183-.49003 1.29978,1e-005 2.40148.47266 3.30509,1.41795s1.35539,2.17213 1.3554,3.68044c-1e-005,1.25809-.36493,2.38064-1.09475,3.36765-.99397,1.34845-2.37369,2.02268-4.13918,2.02268-1.41102,0-2.56137-.37882-3.45106-1.13645s-1.42144-1.77593-1.59521-3.05487z"/>
<path d="m231.28788,245.19228c0-.92444.32495-1.70988.97485-2.35631s1.43359-.96962 2.3511-.96964 1.70119.32497 2.3511.97485 .97483,1.43361.97484,2.3511-.32495,1.70121-.97484,2.3511-1.43361.97485-2.3511.97485-1.70121-.32494-2.3511-.97485-.97485-1.43359-.97485-2.3511zm1.73074,0c0,.43791.15639.81325.46918,1.12603s.68812.46918 1.12603.46917 .81323-.15638 1.12602-.46917 .46917-.68812.46918-1.12603-.1564-.81323-.46918-1.12603-.68813-.46916-1.12602-.46917-.81325.1564-1.12603.46917-.46918.68814-.46918,1.12603z"/>
</g>
<g transform="matrix(2.23832,0,0,2.23832,449.67761,933.28751)">
<g transform="matrix(.21115,0,0,.21115,105.488,-21.99683)">
<path d="m89.10001-25.5501c5.989,0 10.85,4.861 10.85,10.85s-4.861,10.85-10.85,10.85c-5.178,0-9.512-3.629-10.592-8.482h5.166c.914,2.09 3,3.551 5.426,3.551 3.267,0 5.917-2.651 5.917-5.918s-2.651-5.918-5.917-5.918c-2.349,0-4.377,1.37-5.333,3.354h-5.209c1.152-4.755 5.435-8.287 10.542-8.287z"/>
<path d="m89.46276-33.55045c-10.671,0-19.333,8.662-19.333,19.333s8.662,19.333 19.333,19.333 19.334-8.661 19.334-19.333-8.662-19.333-19.334-19.333zm0,3.945c8.494,0 15.389,6.894 15.389,15.388s-6.895,15.387-15.389,15.387-15.387-6.893-15.387-15.387 6.893-15.388 15.387-15.388z"/>
</g>
<g font-family="Sans" font-size="17.87055" letter-spacing="0" word-spacing="0">
<path d="m135.87044-23.43024v.60383h-3.38214c-.005-.15125.0198-.29668.0733-.43629 .0861-.23036.22397-.45723.41361-.68062s.46363-.48167.82198-.77486c.55612-.45607.93191-.81732 1.12738-1.08375s.29318-.51831.29318-.75566c0-.24897-.089-.45898-.26701-.63001s-.41011-.25654-.69632-.25654c-.3025,5e-006-.54449.09075-.72599.27225s-.27341.43281-.27574.75391l-.64571-.06632c.0442-.48166.21058-.84873.49912-1.1012s.67596-.3787 1.16228-.3787 .87956.13613 1.16578.40837 .4293.60965.42931,1.0122c-1e-005,.20477-.0419.40605-.12566.60383s-.2228.40605-.41709.62477-.51716.5189-.96857.90051c-.37696.31646-.61896.53111-.72599.64397s-.19546.22629-.26527.34031z"/>
<path d="m136.54756-25.34993c0-.60499.0623-1.09189.18674-1.46071s.30947-.65327.55496-.85339 .55438-.30017.92669-.30017c.27457,5e-006 .5154.05527.7225.16579s.37811.26993.51308.47818 .24083.46189.31762.76089 .11518.70214.11518,1.2094c0,.60034-.0617,1.08492-.18499,1.45373s-.30773.65386-.55322.85513-.55555.30191-.93017.30191c-.49331-1e-006-.88073-.17684-1.16229-.53053-.3374-.42582-.5061-1.11924-.5061-2.08024zm.64572,0c0,.84001.0983,1.39905.29493,1.67711s.4392.4171.72774.4171 .53111-.13961.72773-.41884 .29493-.83768.29494-1.67536-.0983-1.40195-.29494-1.67885-.44153-.41535-.73471-.41535-.5189.12217-.69109.36649c-.2164.31181-.3246.88771-.3246,1.72772z"/>
<path d="m142.893-22.82642h-.62826v-4.00342c-.15125.14427-.34962.28854-.5951.4328s-.46596.25247-.66142.3246v-.60732c.35136-.16521.65851-.36532.92145-.60034s.44909-.46305.55845-.68411h.40488z"/>
<path d="m146.87199-22.82642h-.62826v-4.00342c-.15125.14427-.34962.28854-.5951.4328s-.46596.25247-.66142.3246v-.60732c.35136-.16521.65851-.36532.92145-.60034s.44909-.46305.55845-.68411h.40488z"/>
<path d="m150.37629-24.2784 .61081-.08377c.0163.39092.0896.65851.2199.80278s.31063.2164.541.2164c.16986,0 .31645-.03898.43978-.11693s.20826-.18382.2548-.31762 .0698-.34729.0698-.64048v-3.52525h.67713v3.48685c0,.42815-.0518.75973-.15532.99475s-.2676.41419-.49214.53751-.48807.18499-.79056.18499c-.44909-1e-006-.79289-.12914-1.0314-.38743s-.3531-.64222-.3438-1.15181z"/>
<path d="m156.63448-23.28365c-.2327.19779-.45666.3374-.67189.41884s-.44619.12216-.69284.12216c-.4072,0-.72017-.09948-.9389-.29842s-.32809-.45316-.32809-.76264c0-.1815.0413-.34729.12391-.49737s.1908-.2705.3246-.36125 .28446-.15939.452-.20593c.12332-.03257.30947-.06399.55845-.09424 .50726-.0605.88073-.13263 1.1204-.2164 .002-.08609.003-.14077.003-.16405 0-.25595-.0593-.43629-.17801-.541-.16055-.14194-.39906-.21291-.71552-.21291-.29551,3e-006-.51366.05178-.65443.15532s-.24491.28679-.31239.54973l-.6143-.08377c.0558-.26294.14776-.47526.27574-.63699s.31296-.2862.55496-.37347 .52239-.13088.84117-.13089 .57358.03723.77137.11169 .34321.16812.43629.28097 .15823.25538.19546.42757c.0209.10704.0314.30017.0314.5794v.83768c0,.58405.0134.95345.0401,1.10818s.0797.30308.15881.44502h-.65618c-.0652-.13031-.10704-.28272-.12565-.45724zm-.0524-1.40312c-.22804.09308-.57009.17219-1.02616.23734-.25829.03723-.44095.07912-.54798.12565s-.18965.1146-.24782.20419-.0873.18906-.0873.29842c-1e-005,.16754.0634.30715.19022.41884s.31238.16754.55671.16754 .45723-.05294.64571-.15881 .32693-.25072.41535-.43455c.0675-.14194.10122-.35136.10122-.62826z"/>
<path d="m158.19466-22.82642v-3.70674h.56543v.52704c.27225-.4072.66549-.61081 1.17974-.61081 .22338,4e-006 .42873.04014.61604.12042s.32751.18557.42059.31588 .15823.28505.19546.46422c.0233.11635.0349.31995.0349.61081v2.27919h-.62826v-2.25476c0-.25596-.0244-.44734-.0733-.57416s-.13554-.22803-.26003-.30366-.2705-.11343-.43803-.11344c-.2676,3e-006-.49854.08494-.69284.25479s-.29144.49214-.29144.96682v2.0244z"/>
<path d="m164.25738-22.82642v-5.11684h.67713v2.10119h2.65964v-2.10119h.67712v5.11684h-.67712v-2.41183h-2.65964v2.41183z"/>
<path d="m171.85934-24.02011 .64921.08028c-.10239.37928-.29203.67364-.56893.88306s-.63059.31413-1.06106.31413c-.54217,0-.97206-.16695-1.28968-.50086s-.47643-.80219-.47643-1.40486c0-.6236.16055-1.1076.48166-1.45198s.73763-.51657 1.24954-.51657c.49563,4e-006 .90051.1687 1.21464.5061s.4712.81209.4712,1.42406c0,.03723-.001.09308-.003.16754h-2.76435c.0233.40721.13845.71901.34554.93541s.46538.3246.77486.3246c.23036,0 .42698-.0605.58987-.1815s.29202-.31413.38742-.5794zm-2.06279-1.01569h2.06977c-.0279-.3118-.10704-.54565-.23734-.70156-.20011-.24199-.45956-.36299-.77834-.363-.28854,3e-006-.53112.09657-.72774.2897s-.30541.45142-.32635.77485z"/>
<path d="m173.28689-22.82642v-5.11684h.62826v5.11684z"/>
<path d="m177.42993-24.02011 .6492.08028c-.10239.37928-.29203.67364-.56893.88306s-.63059.31413-1.06106.31413c-.54217,0-.97206-.16695-1.28968-.50086s-.47643-.80219-.47643-1.40486c0-.6236.16055-1.1076.48167-1.45198s.73762-.51657 1.24954-.51657c.49562,4e-006 .9005.1687 1.21464.5061s.47119.81209.47119,1.42406c0,.03723-.001.09308-.003.16754h-2.76435c.0233.40721.13845.71901.34555.93541s.46537.3246.77485.3246c.23036,0 .42698-.0605.58987-.1815s.29202-.31413.38743-.5794zm-2.06279-1.01569h2.06977c-.0279-.3118-.10704-.54565-.23735-.70156-.20011-.24199-.45956-.36299-.77834-.363-.28854,3e-006-.53112.09657-.72774.2897s-.3054.45142-.32634.77485z"/>
<path d="m179.45083-22.82642h-.58288v-5.11684h.62826v1.82545c.26526-.33274.60383-.49911 1.01569-.49912 .22803,4e-006 .44385.04596.64746.13787s.37113.22106.50261.38743 .23443.36707.30889.60208 .11169.48632.11169.75391c0,.63524-.15707,1.12622-.47119,1.47292s-.69109.52006-1.13087.52006-.78068-.18266-1.02966-.54798zm-.007-1.88129c0,.44444.0605.76555.1815.96333 .19779.32344.46538.48516.80278.48516 .27457,0 .51191-.11925.71203-.35776s.30017-.59394.30017-1.0663c0-.48399-.096-.84117-.28795-1.07153s-.42408-.34554-.69633-.34554-.51192.11926-.71203.35776-.30017.58347-.30017,1.03489z"/>
<path d="m182.84345-22.82642v-3.70674h.56543v.56195c.14427-.26294.27748-.43629.39965-.52006s.25653-.12565.40313-.12565c.21174,4e-006 .42698.06748.64571.20244l-.2164.58289c-.15358-.09074-.30715-.13612-.46072-.13612-.13729,3e-006-.26062.04131-.36998.12391s-.18732.19721-.23385.3438c-.0698.22338-.10471.46771-.10471.73297v1.94063z"/>
<path d="m187.65663-23.28365c-.2327.19779-.45666.3374-.67189.41884s-.44619.12216-.69284.12216c-.4072,0-.72017-.09948-.9389-.29842s-.32809-.45316-.32809-.76264c0-.1815.0413-.34729.12391-.49737s.1908-.2705.3246-.36125 .28446-.15939.452-.20593c.12332-.03257.30947-.06399.55845-.09424 .50726-.0605.88073-.13263 1.1204-.2164 .002-.08609.003-.14077.003-.16405 0-.25595-.0593-.43629-.17801-.541-.16055-.14194-.39906-.21291-.71552-.21291-.29551,3e-006-.51366.05178-.65443.15532s-.24491.28679-.31239.54973l-.6143-.08377c.0559-.26294.14776-.47526.27574-.63699s.31296-.2862.55496-.37347 .52239-.13088.84117-.13089 .57358.03723.77137.11169 .34321.16812.43629.28097 .15823.25538.19546.42757c.0209.10704.0314.30017.0314.5794v.83768c0,.58405.0134.95345.0401,1.10818s.0797.30308.15881.44502h-.65618c-.0652-.13031-.10704-.28272-.12565-.45724zm-.0524-1.40312c-.22804.09308-.57009.17219-1.02616.23734-.25829.03723-.44095.07912-.54798.12565s-.18965.1146-.24782.20419-.0873.18906-.0872.29842c-1e-005,.16754.0634.30715.19022.41884s.31238.16754.55671.16754 .45723-.05294.64571-.15881 .32693-.25072.41535-.43455c.0675-.14194.10122-.35136.10122-.62826z"/>
<path d="m189.21681-22.82642v-3.70674h.56543v.52704c.27225-.4072.66549-.61081 1.17974-.61081 .22338,4e-006 .42873.04014.61604.12042s.32751.18557.42059.31588 .15823.28505.19546.46422c.0233.11635.0349.31995.0349.61081v2.27919h-.62826v-2.25476c0-.25596-.0244-.44734-.0733-.57416s-.13554-.22803-.26003-.30366-.2705-.11343-.43803-.11344c-.2676,3e-006-.49854.08494-.69284.25479s-.29144.49214-.29144.96682v2.0244z"/>
<path d="m194.5675-23.38836 .0908.55496c-.17685.03723-.33507.05585-.47469.05585-.22803,0-.40488-.03607-.53053-.1082s-.21407-.16695-.26526-.28446-.0768-.36474-.0768-.7417v-2.1326h-.46073v-.48865h.46073v-.91796l.62477-.37696v1.29492h.63175v.48865h-.63175v2.1675c0,.17917.011.29435.0332.34554s.0582.09191.1082.12216 .12158.04537.21465.04537c.0698,1e-006 .16172-.0081.27574-.02443z"/>
</g>
</g>
</svg>
